<svg xmlns="http://www.w3.org/2000/svg" width="169.994" height="130.054" viewBox="0 0 169.994 130.054">
  <g id="Group_205" data-name="Group 205" transform="translate(-453.864 -54.182)">
    <path id="continent" d="M409.863,47.191c-1.692,1.134-3.633.884-5.44,1.307-2.5.577-5,2.153-7.113-.75-.038-.077-.173-.077-.346-.135.692-.4,1.423-1,.557-1.653-1.653-1.23-2.6-3.21-4.71-4a3.045,3.045,0,0,1-1.846-2.653,3.139,3.139,0,0,0-1.288-2.691c-1.557-.884-1.9-2.249-1.9-3.864a4.237,4.237,0,0,0-.942-3.172,9.977,9.977,0,0,1-1.961-3.153c-1.326-2.672-2.23-5.594-4-8.074a1.621,1.621,0,0,1-.4-1.826c.73.865.807,2.038,1.73,2.634.423.269.711.6.98-.211.557-1.692.961-3.326.019-5.037-.288-.519-.423-.846-1.1-.654a3.383,3.383,0,0,1-2.788-.135c-1.384-1.057-2.461-.346-3.595.173-.557.25-1,.692-1.692.423-2.6-1-5.421-1.211-8.017-2.249a3.162,3.162,0,0,1-1.5-.865c-1.057-1.25-2.442-.731-3.672-.135-1.038.481-1.653,1.23-1.134,2.48.327.769-.115,1.288-.692,1.692a1.282,1.282,0,0,1-1.807-.135,4.516,4.516,0,0,0-2.749-1.269c-1.307-.135-2.326-.423-2.557-1.922-.077-.442-.538-.4-.807-.577-1.538-.961-3.384-.423-5-1.134-.692-.288-.923-1-1.673-1.173-1.384-.346-1.423-.75-.308-1.73.577-.5,1.288-1.307.807-1.788-1.115-1.134-.711-2,.211-3-.673-.231-1.1.788-1.5-.135s-1.134-.731-1.307,3.287a2.66,2.66,0,0,1-1.884.558c-2.326-.577-4.614.154-6.921.192a13.131,13.131,0,0,0-8.613,3.114,1.331,1.331,0,0,1-1,.308,13.173,13.173,0,0,0-3.787-.192,1.36,1.36,0,0,1-1.057-.558c-1.019-1.019-1.423-.961-1.73.384a4.655,4.655,0,0,1-3.134,3.653c-1.615.6-3.268,3.441-2.807,5.037s-.346,2.461-1.307,3.287c-.98.846-1.865,1.942-3.383,1.961-.577.019-.807.538-.98,1.057a2.693,2.693,0,0,1-1.461,1.884,1.27,1.27,0,0,0-.731.942c-.558,2.615-2.5,4.46-3.653,6.748a1.741,1.741,0,0,0,.211,2.326c.384.346.942.75.692,1.269a3.3,3.3,0,0,0,.231,2.5,3.183,3.183,0,0,1-.115,2.268c-.634,1.307-.211,3.057-1.634,4.037-.135.1-.135.231-.019.365a3.119,3.119,0,0,1,.731,3.057,2.326,2.326,0,0,0-.019.365h.019a25.4,25.4,0,0,1,4.691.038c1.346.211,2.73-.788,3.96.231,1.173-.615,2.441.1,3.691-.25a17.121,17.121,0,0,1,2.211.019c.135-.019.288.058.423.038,1.538-.077,1.538-.077,1.519,1.6a7.039,7.039,0,0,0-.077,2.711c.019.461-.135.5-.442.519a9.7,9.7,0,0,1-2.345.115,22.25,22.25,0,0,0-5.652.058,14.062,14.062,0,0,1-2.518-.154,2.839,2.839,0,0,0-.4.019,3.238,3.238,0,0,1,.884,2.134,2.323,2.323,0,0,0,1.173,1.634,31.183,31.183,0,0,1,5.287,3.653,3.578,3.578,0,0,0,4.229.692,8.5,8.5,0,0,1,6.748-.346,2.079,2.079,0,0,0,1.6-.154c1.346-.461,2.634-1.057,3.96-1.519-.25-.1-.5-.211-.769-.327-.961-.423-1.115-1.461-1.326-2.307-.1-.442-.211-.865-.346-1.288-.423-.98.115-.98.75-.884a17.555,17.555,0,0,0,3.018-.058c.788,0,1.519.481,2.365.192.211-.077,1.019-.6,1.115.327.288-.077.327-.423.769-.423,1.4.058,2.807-.058,4.21-.038,2.653,0,5.306.038,7.959.077.384,0,.961-.192.961.6.058-.731.5-.711.98-.6.538.115.346.423.384.846.115,1.442-.461,2.864-.038,4.268.25.846-.1,1.1-.807,1.077a31.6,31.6,0,0,0-4.037-.135,43.047,43.047,0,0,1-4.979.1l-1.73-.654c-.1-.211-.135-.019-.192.019a2.926,2.926,0,0,1-1.038.442c.442,1.307,1.269,1.557,2.518,1.307.6-.135,1.211-.154,1.826-.231,1.4-.192,3.172,1.288,3.018,2.691a15.1,15.1,0,0,1-1,4.979,2.82,2.82,0,0,0,.75,3.633,17.945,17.945,0,0,1,5.018,7.363c.288.923,1.153,2.038.884,2.691a2.408,2.408,0,0,0-.231,1.038c2.73,0,5.479,0,8.228-.019.5,0,.788.115.865.731.058-.654.288-.827.865-.731.615.115.423.4.461.865.154,1.442-.481,2.864-.038,4.287.25.807-.115,1.077-.827,1.057a27.243,27.243,0,0,0-5-.1c-1.423.231-2.845.058-4.268.154-.231.019-.461.038-.711.038a4.659,4.659,0,0,0-.692,1.423,31.275,31.275,0,0,0-1,3.518c-.288,1.615-.519,3.383.711,5a13.224,13.224,0,0,1,1.115,1.788.628.628,0,0,1,.231.038c1.442.192,2.864-.077,4.249,0,2.326.154,4.633-.192,6.94.1.942.115,1.922-.423,2.826.231.192.135.135-.154.25-.211.827-.327,1.48.058,1.442.923a3.987,3.987,0,0,1-.211,1.749c-.154.308.154,1,.231,1.538.077.577-.058.654-.615.6a15.3,15.3,0,0,1-2.634-.269c-1.153-.308-2.23.5-3.422.4a34.2,34.2,0,0,0-4.21-.058,8.859,8.859,0,0,1-2.557-.1v.135c-.288,2.345.654,4.518.961,6.786a5.932,5.932,0,0,0,2.038,3.691,3.55,3.55,0,0,1,.961,1.557,16.446,16.446,0,0,0,1.884,4.037c.346.538.692,1.346.327,1.73-1.115,1.134.038,1.942.327,2.788s1.288,1.25,2.019,1.749c.538.365.9-.481,1.326-.481,1.48,0,2.73-1,4.268-.884,3.307.25,6.421-.327,8.786-2.922,1.615-1.769,3.576-3.268,4.441-5.652a2.847,2.847,0,0,1,.98-1.153,4.534,4.534,0,0,0,1.653-4.691c-.288-1.5.327-1.807,1.25-2.249.6-.288,1.25-.481,1.865-.75a1.927,1.927,0,0,0,1.25-1.865,11.118,11.118,0,0,0-1.077-5.479c-.192-.481-.327-1.019.058-1.269,2.268-1.519,3.672-4.133,6.517-4.941,1.711-.481,3.422-2.864,3.153-4.152a24.871,24.871,0,0,1-.346-6.094,1.006,1.006,0,0,0-.384-.942c-1.288-.942-1.4-2.307-1.519-3.749-.058-.9.519-2.076-.731-2.73-.288-.154-.211-.558-.154-.865a10.36,10.36,0,0,1,2.518-5.114c1.961-1.826,3.441-4.037,5.421-5.825,1.519-1.365,3.384-2.115,4.845-3.537,2.711-2.653,4.114-6.094,6.017-9.247a9.973,9.973,0,0,0,1.307-4.652ZM366.455,72.336c-1,.327-2.019-.538-3.114-.135-1.711.634-3.48.077-5.229.192a4.694,4.694,0,0,1-1.884-.115c-.827-.308-1.711.384-2.48-.25-.577-.481-1.365-.346-2-.75-1.23-.769-1.384-2.038-1.634-3.268-.058-.269.192-.538.231-.442.5.846,1,.019,1.461,0,.769-.038,1.538.25,2.211.135a8.683,8.683,0,0,1,2.268-.192,29.25,29.25,0,0,0,3.672,0,39.527,39.527,0,0,0,5.441,0c.365-.058,1.057.115,1.576.077.807-.077,1.019.25.884.961-.1.577.192,1.173-.269,1.73-.288.346.288.615.308,1.1C367.954,72.567,367.4,72.567,366.455,72.336Z" transform="translate(212.473 53.111)" fill="#729eb8" stroke="#3b3b3b" stroke-width="0.5"/>
    <path id="boat1" d="M109.108,175.992c-.846-.231-1.846,0-2.864-.346-.615-.211-1.442.25-2.076.077-.846-.231-1.826.346-2.461-.346-.481-.5-.961-.1-1.4-.327-1.346-.654-1.826-1.942-2.326-3.21-.1-.269-.173-.731.231-.884.308-.115.4.173.4.461,0,.115.077.25.154.154,1.134-1.307,2.576-.346,3.845-.5a52.749,52.749,0,0,1,6.036-.154,26.931,26.931,0,0,1,3.922.135,14.41,14.41,0,0,0,2.73-.019c.5-.019.615.115.538.634-.115.711.25,1.5-.346,2.134.634.384.211,1,.346,1.5.1.384.173.673-.5.577a21.2,21.2,0,0,1-2.653-.231,2.032,2.032,0,0,0-1.788.211C110.493,176.107,109.8,175.953,109.108,175.992Z" transform="translate(375.043 -83.841)" fill="#729eb8" stroke="#3b3b3b" stroke-width="0.5"/>
    <path id="boat2" d="M17.882,232.324a7.039,7.039,0,0,0-.077,2.711c.019.461-.135.5-.442.538a9.7,9.7,0,0,1-2.345.115,22.25,22.25,0,0,0-5.652.058,14.063,14.063,0,0,1-2.518-.154c-.4-.038-1.077.288-1.173-.538a.184.184,0,0,0-.173-.038c-1.615.961-2.9,0-4.172-.75a3.6,3.6,0,0,1-1.365-2.9c-.115-.942.98-.692,1.4-.711a25.419,25.419,0,0,1,4.691.038c1.346.192,2.749-.788,3.96.231,1.173-.615,2.442.115,3.691-.25a17.126,17.126,0,0,1,2.211.019c.135-.019.288.058.442.038C17.9,230.651,17.9,230.651,17.882,232.324Z" transform="translate(454.158 -131.965)" fill="#729eb8" stroke="#3b3b3b" stroke-width="0.5"/>
    <path id="boat3" d="M165.9,264.628c0-.961.461-.923,1-.807s.346.423.384.846c.115,1.442-.461,2.864-.058,4.268.25.846-.1,1.1-.807,1.077a31.6,31.6,0,0,0-4.037-.135,43.05,43.05,0,0,1-4.979.1l-1.749-.654c-.1-.192-.135-.019-.192.019-1.192.846-2.518.365-3.806.365a13.292,13.292,0,0,1-5.21-1.461c-.961-.423-1.115-1.461-1.326-2.307-.1-.442-.211-.865-.346-1.288-.423-.98.115-1,.75-.884a17.554,17.554,0,0,0,3.018-.058c.788,0,1.519.481,2.365.192.211-.077,1-.6,1.115.327.288-.077.327-.423.769-.423,1.4.038,2.807-.058,4.21-.038,2.653,0,5.306.038,7.959.077C165.357,263.821,165.991,263.59,165.9,264.628Z" transform="translate(337.308 -158.809)" fill="#729eb8" stroke="#3b3b3b" stroke-width="0.5"/>
    <path id="boat4" d="M286.643,348.25c-1,.327-2.038-.538-3.134-.135-1.711.634-3.48.077-5.21.192a4.48,4.48,0,0,1-1.9-.135c-.827-.308-1.711.384-2.48-.25-.577-.481-1.365-.346-2-.75-1.23-.788-1.384-2.038-1.653-3.268-.058-.288.192-.538.231-.442.5.846,1,.019,1.461,0,.769-.038,1.538.25,2.211.135a8.679,8.679,0,0,1,2.268-.192,29.252,29.252,0,0,0,3.672,0,43.121,43.121,0,0,0,5.46,0c.365-.058,1.057.115,1.576.077.807-.077,1,.25.884.961-.1.577.192,1.173-.269,1.73-.288.346.288.615.308,1.1C288.162,348.481,287.6,348.462,286.643,348.25Z" transform="translate(235.822 -223.188)" fill="#729eb8" stroke="#3b3b3b" stroke-width="0.5"/>
    <path id="boat5" d="M219.428,417.09c.058-.654.288-.827.865-.731.615.115.423.4.461.884.135,1.442-.481,2.864-.058,4.268.25.807-.115,1.077-.827,1.057a27.24,27.24,0,0,0-5-.1c-1.442.231-2.845.058-4.268.154a12.808,12.808,0,0,1-3.1-.1,9.153,9.153,0,0,0-3.153-.1,2.757,2.757,0,0,1-1.653-.4c-.731-.577-1.615-.557-2.384-.961a3.241,3.241,0,0,1-1.692-2.634c-.1-.519-.519-.711-.558-1.25-.058-.865.231-1.038.942-.923a15.814,15.814,0,0,0,3.018-.058c.788,0,1.519.442,2.365.192.231-.077,1-.6,1.134.327a.905.905,0,0,1,.884-.4c1.307.038,2.6.019,3.9,0,2.749,0,5.517,0,8.267-.019C219.063,416.359,219.332,416.494,219.428,417.09Z" transform="translate(294.137 -281.992)" fill="#729eb8" stroke="#3b3b3b" stroke-width="0.5"/>
    <path id="boat6" d="M250.792,511.774c.115-.942,1.192-.769,1.423-.731,1.442.192,2.864-.077,4.249.019,2.326.154,4.633-.192,6.94.1.942.115,1.922-.423,2.826.231.192.135.135-.154.25-.211.827-.327,1.48.058,1.442.923a3.724,3.724,0,0,1-.211,1.749c-.135.308.154,1,.231,1.538.077.577-.058.654-.615.6a15.3,15.3,0,0,1-2.634-.269c-1.153-.308-2.23.5-3.422.4a38.454,38.454,0,0,0-4.21-.058,6.354,6.354,0,0,1-3.326-.385c-.865-.481-2.019-.538-2.634-1.384a7.252,7.252,0,0,1-1.057-2.442c-.077-.288-.058-.692.269-.769C250.792,510.986,250.6,511.543,250.792,511.774Z" transform="translate(252.18 -358.586)" fill="#729eb8" stroke="#3b3b3b" stroke-width="0.5"/>
    <path id="madagascar" d="M821.514,449.54c.327,2.192-.327,4-.807,5.787-.9,3.345-2.057,6.613-3.153,9.881a4.645,4.645,0,0,1-3.46,2.057,3.215,3.215,0,0,1-2.6-3.057c0-.25.173-.6.058-.75-1.365-1.9-.519-3.5.692-5.037a2.664,2.664,0,0,0,.288-2.768c-.481-1.326-.788-2.615.115-4a2.676,2.676,0,0,1,1.307-1.153c2.038-.711,4.229-1.192,4.633-3.845,1.269-.288,1.557-1.25,1.807-2.365.115-.538.557-.211.807.1,1.269,1.519,1.23,3.46,1.5,5.248C822.84,450.751,822.091,450.04,821.514,449.54Z" transform="translate(-200.851 -304.465)" fill="#729eb8" stroke="#3b3b3b" stroke-width="0.5"/>
  </g>
</svg>
