<svg xmlns="http://www.w3.org/2000/svg" width="145.587" height="38.575" viewBox="0 0 145.587 38.575">
  <g id="sv-logo_v2" transform="translate(0.251 0.255)">
    <path id="continent" d="M331.69,14.8a4.306,4.306,0,0,1-1.6.384c-.734.169-1.469.633-2.09-.22-.011-.023-.051-.023-.1-.04.2-.119.418-.294.164-.486-.486-.362-.763-.943-1.384-1.175a.9.9,0,0,1-.542-.78.922.922,0,0,0-.378-.791,1.151,1.151,0,0,1-.559-1.135,1.245,1.245,0,0,0-.277-.932,2.932,2.932,0,0,1-.576-.926,16.543,16.543,0,0,0-1.175-2.372.476.476,0,0,1-.119-.537c.215.254.237.6.508.774.124.079.209.175.288-.062a1.74,1.74,0,0,0,.006-1.48c-.085-.153-.124-.249-.322-.192a.994.994,0,0,1-.819-.04c-.407-.311-.723-.1-1.056.051-.164.073-.294.2-.5.124-.763-.294-1.593-.356-2.355-.661a.929.929,0,0,1-.441-.254c-.311-.367-.717-.215-1.079-.04-.305.141-.486.362-.333.729.1.226-.034.378-.2.5a.377.377,0,0,1-.531-.04,1.327,1.327,0,0,0-.808-.373c-.384-.04-.683-.124-.751-.565-.023-.13-.158-.119-.237-.169-.452-.282-.994-.124-1.469-.333-.2-.085-.271-.294-.491-.345-.407-.1-.418-.22-.09-.508.169-.147.379-.384.237-.525-.328-.333-.209-.587.062-.881-.2-.068-.322.232-.441-.04s-.333-.215-.384.966a.782.782,0,0,1-.554.164,7.662,7.662,0,0,0-2.034.056,3.859,3.859,0,0,0-2.531.915.391.391,0,0,1-.294.09,3.871,3.871,0,0,0-1.113-.056.4.4,0,0,1-.311-.164c-.3-.3-.418-.282-.508.113a1.368,1.368,0,0,1-.921,1.073,1.542,1.542,0,0,0-.825,1.48.851.851,0,0,1-.384.966c-.288.249-.548.571-.994.576-.169.006-.237.158-.288.311a.791.791,0,0,1-.429.554.373.373,0,0,0-.215.277,8.518,8.518,0,0,1-1.073,1.983.512.512,0,0,0,.062.684c.113.1.277.22.2.373a.969.969,0,0,0,.068.734.936.936,0,0,1-.034.667c-.186.384-.062.9-.48,1.186-.04.028-.04.068-.006.107a.916.916,0,0,1,.215.9.688.688,0,0,0-.006.107h.006a7.463,7.463,0,0,1,1.378.011c.4.062.8-.232,1.164.068.345-.181.717.028,1.085-.073a5.031,5.031,0,0,1,.65.006c.04-.006.085.017.124.011.452-.023.452-.023.446.469a2.068,2.068,0,0,0-.023.8c.006.136-.04.147-.13.153a2.851,2.851,0,0,1-.689.034,6.538,6.538,0,0,0-1.661.017,4.132,4.132,0,0,1-.74-.045.834.834,0,0,0-.119.006.952.952,0,0,1,.26.627.682.682,0,0,0,.345.48,9.16,9.16,0,0,1,1.553,1.073,1.051,1.051,0,0,0,1.243.2,2.5,2.5,0,0,1,1.983-.1.611.611,0,0,0,.469-.045c.4-.136.774-.311,1.164-.446-.073-.028-.147-.062-.226-.1-.282-.124-.328-.429-.39-.678-.028-.13-.062-.254-.1-.378-.124-.288.034-.288.22-.26a5.16,5.16,0,0,0,.887-.017c.232,0,.446.141.695.056.062-.023.3-.175.328.1.085-.023.1-.124.226-.124.412.017.825-.017,1.237-.011.779,0,1.559.011,2.339.023.113,0,.282-.056.282.175.017-.215.147-.209.288-.175.158.034.1.124.113.249a5.823,5.823,0,0,0-.011,1.254c.073.249-.028.322-.237.316a9.284,9.284,0,0,0-1.186-.04,12.648,12.648,0,0,1-1.463.028l-.508-.192c-.028-.062-.04-.006-.056.006a.86.86,0,0,1-.305.13c.13.384.373.458.74.384.175-.04.356-.045.537-.068a.842.842,0,0,1,.887.791,4.438,4.438,0,0,1-.294,1.463.829.829,0,0,0,.22,1.068,5.272,5.272,0,0,1,1.474,2.163c.085.271.339.6.26.791a.707.707,0,0,0-.068.305c.8,0,1.61,0,2.418-.006.147,0,.232.034.254.215.017-.192.085-.243.254-.215s.124.119.136.254c.045.424-.141.842-.011,1.26.073.237-.034.316-.243.311a8.005,8.005,0,0,0-1.469-.028c-.418.068-.836.017-1.254.045-.068.006-.136.011-.209.011a1.368,1.368,0,0,0-.2.418,9.181,9.181,0,0,0-.294,1.034,1.742,1.742,0,0,0,.209,1.469,3.884,3.884,0,0,1,.328.525.185.185,0,0,1,.068.011c.424.056.842-.023,1.248,0,.684.045,1.361-.056,2.039.028.277.034.565-.124.83.068.056.04.039-.045.073-.062.243-.1.435.017.424.271a1.171,1.171,0,0,1-.062.514c-.045.09.045.294.068.452s-.017.192-.181.175a4.493,4.493,0,0,1-.774-.079c-.339-.09-.655.147-1.006.119a10.046,10.046,0,0,0-1.237-.017,2.6,2.6,0,0,1-.751-.028v.04a7.69,7.69,0,0,0,.282,1.994,1.743,1.743,0,0,0,.6,1.085,1.044,1.044,0,0,1,.282.458,4.832,4.832,0,0,0,.554,1.186c.1.158.2.4.1.508-.328.333.011.571.1.819s.378.367.593.514c.158.107.266-.141.39-.141.435,0,.8-.294,1.254-.26a2.967,2.967,0,0,0,2.581-.859,5.272,5.272,0,0,0,1.3-1.661.837.837,0,0,1,.288-.339,1.332,1.332,0,0,0,.486-1.378c-.085-.441.1-.531.367-.661.175-.085.367-.141.548-.22a.566.566,0,0,0,.367-.548,3.267,3.267,0,0,0-.316-1.61c-.056-.141-.1-.3.017-.373.667-.446,1.079-1.214,1.915-1.452a1.4,1.4,0,0,0,.926-1.22,7.308,7.308,0,0,1-.1-1.791.3.3,0,0,0-.113-.277,1.327,1.327,0,0,1-.446-1.1c-.017-.265.152-.61-.215-.8-.085-.045-.062-.164-.045-.254a3.044,3.044,0,0,1,.74-1.5c.576-.537,1.011-1.186,1.593-1.712.446-.4.994-.621,1.423-1.039a12.61,12.61,0,0,0,1.768-2.717,2.931,2.931,0,0,0,.384-1.367Zm-12.755,7.389c-.294.1-.593-.158-.915-.04a5.184,5.184,0,0,1-1.536.056,1.379,1.379,0,0,1-.554-.034c-.243-.09-.5.113-.729-.073-.169-.141-.4-.1-.587-.22a1.267,1.267,0,0,1-.48-.96c-.017-.079.056-.158.068-.13.147.249.294.006.429,0,.226-.011.452.073.65.04a2.551,2.551,0,0,1,.667-.056,8.6,8.6,0,0,0,1.079,0,11.616,11.616,0,0,0,1.6,0c.107-.017.311.034.463.023.237-.023.3.073.26.282-.028.169.056.345-.079.508-.085.1.085.181.09.322C319.375,22.259,319.212,22.259,318.935,22.192Z" transform="translate(-282.26 -1.326)" fill="#729eb8" stroke="#3b3b3b" stroke-width="0.5"/>
    <path id="boat1" d="M101.194,172.377c-.249-.068-.542,0-.842-.1-.181-.062-.424.073-.61.023-.249-.068-.537.1-.723-.1-.141-.147-.282-.028-.412-.1a1.529,1.529,0,0,1-.684-.943c-.028-.079-.051-.215.068-.26.09-.034.119.051.119.136,0,.034.023.073.045.045.333-.384.757-.1,1.13-.147a15.5,15.5,0,0,1,1.774-.045,7.914,7.914,0,0,1,1.152.04,4.234,4.234,0,0,0,.8-.006c.147-.006.181.034.158.186-.034.209.073.441-.1.627.186.113.062.294.1.441.028.113.051.2-.147.169a6.227,6.227,0,0,1-.78-.068.6.6,0,0,0-.525.062C101.6,172.411,101.4,172.365,101.194,172.377Z" transform="translate(-92.368 -161.295)" fill="#729eb8" stroke="#3b3b3b" stroke-width="0.5"/>
    <path id="boat2" d="M5.223,231a2.069,2.069,0,0,0-.023.8c.006.136-.04.147-.13.158a2.851,2.851,0,0,1-.689.034,6.538,6.538,0,0,0-1.661.017,4.13,4.13,0,0,1-.74-.045c-.119-.011-.316.085-.345-.158a.054.054,0,0,0-.051-.011c-.474.282-.853,0-1.226-.22a1.057,1.057,0,0,1-.4-.853c-.034-.277.288-.2.412-.209a7.467,7.467,0,0,1,1.378.011c.4.057.808-.232,1.164.068.345-.181.717.034,1.085-.073a5.036,5.036,0,0,1,.65.006c.04-.006.085.017.13.011C5.229,230.509,5.229,230.509,5.223,231Z" transform="translate(0.044 -217.506)" fill="#729eb8" stroke="#3b3b3b" stroke-width="0.5"/>
    <path id="boat3" d="M150.869,263.961c0-.283.136-.271.294-.237s.1.124.113.249a6.215,6.215,0,0,0-.017,1.254c.073.249-.028.322-.237.316a9.286,9.286,0,0,0-1.186-.04,12.641,12.641,0,0,1-1.463.028l-.514-.192c-.028-.057-.04-.006-.056.006-.35.249-.74.107-1.118.107a3.906,3.906,0,0,1-1.531-.429c-.282-.124-.328-.429-.39-.678-.028-.13-.062-.254-.1-.378-.124-.288.034-.294.22-.26a5.152,5.152,0,0,0,.887-.017c.232,0,.446.141.695.057.062-.023.294-.175.328.1.085-.023.1-.124.226-.124.412.011.825-.017,1.237-.011.78,0,1.559.011,2.339.023C150.711,263.723,150.9,263.656,150.869,263.961Z" transform="translate(-136.445 -248.863)" fill="#729eb8" stroke="#3b3b3b" stroke-width="0.5"/>
    <path id="boat4" d="M275.071,344.813c-.294.1-.6-.158-.921-.04a5.157,5.157,0,0,1-1.531.057,1.317,1.317,0,0,1-.559-.04c-.243-.09-.5.113-.729-.073-.169-.141-.4-.1-.587-.22a1.3,1.3,0,0,1-.486-.96c-.017-.085.056-.158.068-.13.147.249.294.006.429,0,.226-.011.452.073.65.04a2.549,2.549,0,0,1,.667-.056,8.61,8.61,0,0,0,1.079,0,12.675,12.675,0,0,0,1.6,0c.107-.017.311.034.463.023.237-.023.294.073.26.282-.028.169.057.345-.079.508-.085.1.085.181.09.322C275.517,344.881,275.353,344.875,275.071,344.813Z" transform="translate(-254.987 -324.061)" fill="#729eb8" stroke="#3b3b3b" stroke-width="0.5"/>
    <path id="boat5" d="M204.341,416.449c.017-.192.085-.243.254-.215s.124.119.136.26c.04.424-.141.842-.017,1.254.073.237-.034.316-.243.311a8,8,0,0,0-1.469-.028c-.424.068-.836.017-1.254.045a3.765,3.765,0,0,1-.909-.028,2.69,2.69,0,0,0-.926-.028.81.81,0,0,1-.486-.119c-.215-.169-.475-.164-.7-.282a.952.952,0,0,1-.5-.774c-.028-.153-.152-.209-.164-.367-.017-.254.068-.305.277-.271a4.648,4.648,0,0,0,.887-.017c.232,0,.446.13.695.057.068-.023.294-.175.333.1a.266.266,0,0,1,.26-.119c.384.011.763.006,1.147,0,.808,0,1.621,0,2.429-.006C204.233,416.235,204.312,416.274,204.341,416.449Z" transform="translate(-186.872 -392.748)" fill="#729eb8" stroke="#3b3b3b" stroke-width="0.5"/>
    <path id="boat6" d="M250.236,511.232c.034-.277.35-.226.418-.215.424.056.842-.023,1.248.006.684.045,1.361-.056,2.039.028.277.034.565-.124.83.068.056.04.04-.045.073-.062.243-.1.435.017.424.271a1.1,1.1,0,0,1-.062.514c-.04.09.045.294.068.452s-.017.192-.181.175a4.5,4.5,0,0,1-.774-.079c-.339-.09-.655.147-1.005.119a11.322,11.322,0,0,0-1.237-.017,1.868,1.868,0,0,1-.977-.113c-.254-.141-.593-.158-.774-.407a2.13,2.13,0,0,1-.311-.717c-.023-.085-.017-.2.079-.226C250.236,511,250.18,511.164,250.236,511.232Z" transform="translate(-235.88 -482.215)" fill="#729eb8" stroke="#3b3b3b" stroke-width="0.5"/>
    <path id="boat2_00000082346452972863224280000011286442796836445078_" d="M305.223,251a2.069,2.069,0,0,0-.023.8c.006.136-.04.147-.13.158a2.851,2.851,0,0,1-.689.034,6.539,6.539,0,0,0-1.661.017,4.126,4.126,0,0,1-.74-.045c-.119-.011-.316.085-.345-.158a.054.054,0,0,0-.051-.011c-.474.282-.853,0-1.226-.22a1.057,1.057,0,0,1-.4-.853c-.034-.277.288-.2.412-.209a7.47,7.47,0,0,1,1.378.011c.4.056.808-.232,1.164.068.345-.181.717.034,1.085-.073a5.034,5.034,0,0,1,.65.006c.04-.006.085.017.13.011C305.229,250.509,305.229,250.509,305.223,251Z" transform="translate(-283.01 -236.377)" fill="rgba(114,158,184,0)" stroke="#3b3b3b" stroke-width="0.5"/>
    <path id="maskboat3" d="M446.869,284.87c0-.282.136-.271.294-.237s.1.124.113.249a6.22,6.22,0,0,0-.017,1.254c.073.249-.028.322-.237.316a9.285,9.285,0,0,0-1.186-.04,12.663,12.663,0,0,1-1.463.028l-.514-.192c-.028-.056-.04-.006-.056.006-.35.249-.74.107-1.118.107a3.9,3.9,0,0,1-1.531-.429c-.282-.124-.328-.429-.39-.678-.028-.13-.062-.254-.1-.378-.124-.288.034-.294.22-.26a5.162,5.162,0,0,0,.887-.017c.232,0,.446.141.695.056.062-.023.294-.175.328.1.085-.023.1-.124.226-.124.412.011.825-.017,1.237-.011.779,0,1.559.011,2.339.023-.158-.237.028.446,0,0Z" transform="translate(-415.725 -268.586)" fill="rgba(114,158,184,0)" stroke="#3b3b3b" stroke-width="0.5"/>
    <path id="maskboat4" d="M569.071,346.813c-.294.1-.6-.158-.921-.04a5.152,5.152,0,0,1-1.531.056,1.316,1.316,0,0,1-.559-.04c-.243-.09-.5.113-.729-.073-.169-.141-.4-.1-.587-.22a1.3,1.3,0,0,1-.486-.96c-.017-.085.057-.158.068-.13.147.249.294.006.429,0,.226-.011.452.073.65.04a2.549,2.549,0,0,1,.667-.056,8.6,8.6,0,0,0,1.079,0,12.669,12.669,0,0,0,1.6,0c.107-.017.311.034.463.023.237-.023.294.073.26.282-.028.169.057.345-.079.508-.085.1.085.181.09.322C569.517,346.881,569.353,346.875,569.071,346.813Z" transform="translate(-532.379 -325.948)" fill="rgba(114,158,184,0)" stroke="#3b3b3b" stroke-width="0.5"/>
    <path id="maskboat5" d="M502.341,434.584c.017-.192.085-.243.254-.215s.124.119.136.26c.04.424-.141.842-.017,1.254.073.237-.034.316-.243.311a8.011,8.011,0,0,0-1.469-.028c-.424.068-.836.017-1.254.045a3.762,3.762,0,0,1-.909-.028,2.689,2.689,0,0,0-.926-.028.81.81,0,0,1-.486-.119c-.215-.169-.475-.164-.7-.282a.952.952,0,0,1-.5-.774c-.028-.152-.153-.209-.164-.367-.017-.254.068-.3.277-.271a4.641,4.641,0,0,0,.887-.017c.232,0,.446.13.695.057.068-.023.294-.175.333.1a.266.266,0,0,1,.26-.119c.384.011.763.006,1.147,0,.808,0,1.621,0,2.429-.006-.107-.215-.028-.175,0,0Z" transform="translate(-468.039 -409.753)" fill="rgba(114,158,184,0)" stroke="#3b3b3b" stroke-width="0.5"/>
    <path id="maskboat6" d="M546.236,531.231c.034-.277.35-.226.418-.215.424.056.842-.023,1.248.006.683.045,1.361-.056,2.039.028.277.034.565-.124.83.068.056.04.04-.045.073-.062.243-.1.435.017.424.271a1.094,1.094,0,0,1-.062.514c-.039.09.045.294.068.452s-.017.192-.181.175a4.5,4.5,0,0,1-.774-.079c-.339-.091-.655.147-1.005.119a11.309,11.309,0,0,0-1.237-.017,1.866,1.866,0,0,1-.977-.113c-.254-.141-.593-.158-.774-.407a2.131,2.131,0,0,1-.311-.717c-.022-.085-.017-.2.079-.226C546.236,531,546.18,531.164,546.236,531.231Z" transform="translate(-515.159 -501.085)" fill="rgba(114,158,184,0)" stroke="#3b3b3b" stroke-width="0.5"/>
    <path id="madagascar" d="M813.987,445.631a3.949,3.949,0,0,1-.237,1.7c-.265.983-.6,1.943-.926,2.9a1.364,1.364,0,0,1-1.017.6.945.945,0,0,1-.763-.9c0-.073.051-.175.017-.22-.4-.559-.152-1.028.2-1.48a.783.783,0,0,0,.085-.813,1.21,1.21,0,0,1,.034-1.175.785.785,0,0,1,.384-.339c.6-.209,1.243-.35,1.361-1.13.373-.085.458-.367.531-.695.034-.158.164-.062.237.028a2.876,2.876,0,0,1,.441,1.542C814.377,445.987,814.156,445.778,813.987,445.631Z" transform="translate(-765.049 -418.998)" fill="#729eb8" stroke="#3b3b3b" stroke-width="0.5"/>
    <path id="text_s_1" d="M1001.449,259.387c-.136-.034-.288-.068-.458-.113s-.316-.085-.452-.13c-.011,0-.034-.017-.074-.045s-.062-.051-.062-.062a3.549,3.549,0,0,0-.356-.153,1.706,1.706,0,0,1-.288-.13.491.491,0,0,1-.192-.209.9.9,0,0,1-.068-.4v-.04a.484.484,0,0,1,.045-.1.286.286,0,0,0,.045-.1,1.248,1.248,0,0,0,.034-.362,2.861,2.861,0,0,1,.023-.384.577.577,0,0,1,.028-.068.33.33,0,0,0,.028-.073.183.183,0,0,1,.006-.045.439.439,0,0,1,.011-.085c.006-.034.011-.062.017-.09a.617.617,0,0,1,.017-.068.471.471,0,0,1,.006-.073,1,1,0,0,1,.011-.124c.006-.045.011-.085.017-.124a.471.471,0,0,0,.006-.073.337.337,0,0,1,.005-.056.609.609,0,0,1,.023-.1c.006-.034.017-.062.023-.09a.25.25,0,0,0,.006-.051.481.481,0,0,1,.006-.073c.006-.04.011-.079.017-.124s.011-.085.017-.13a.554.554,0,0,1,.017-.085.6.6,0,0,1,.011-.073.354.354,0,0,1,.034-.1.294.294,0,0,1,.045-.085.074.074,0,0,1,.068-.04c.045,0,.079.04.113.119a1.515,1.515,0,0,1,.085.282c.023.107.045.215.062.322s.028.181.04.232c.005.034.011.09.022.175s.017.175.023.271.017.186.023.265.011.141.011.169a.316.316,0,0,1,.034.045.3.3,0,0,1,.023.045,1.445,1.445,0,0,1,.1.254,1.488,1.488,0,0,0,.1.254.653.653,0,0,0,.034.073.99.99,0,0,0,.062.1c.023.034.04.068.062.1a.6.6,0,0,0,.045.073.621.621,0,0,1,.057.045c.028.028.04.045.04.057a.178.178,0,0,1,.028.051c.011.028.028.062.045.1s.034.068.045.1a.143.143,0,0,1,.022.051.659.659,0,0,0,.192.181,1.847,1.847,0,0,0,.254.141c.09.04.181.079.271.113s.175.068.249.1c.011.011.034.034.068.062s.057.045.068.045h.294a.858.858,0,0,1,.153.023c.085.011.135.023.152.023h.22a1.6,1.6,0,0,0,.52-.073c.153-.045.311-.107.48-.175q.059-.017.152-.034a.275.275,0,0,0,.153-.068.362.362,0,0,0,.073-.062c.04-.034.079-.073.119-.113s.085-.085.124-.13a.569.569,0,0,1,.085-.085.861.861,0,0,0,.085-.1l.113-.13c.04-.045.068-.079.1-.113s.045-.056.051-.062a.245.245,0,0,0,.023-.051.908.908,0,0,1,.028-.1.908.908,0,0,0,.028-.1.1.1,0,0,1,.023-.051,1.652,1.652,0,0,1,.073-.164,1.151,1.151,0,0,0,.062-.119.672.672,0,0,0,.062-.322c0-.169-.006-.333-.011-.491s-.017-.322-.028-.491a.554.554,0,0,0-.13-.271c-.062-.073-.124-.147-.181-.22a.327.327,0,0,0-.062-.079c-.034-.045-.073-.09-.113-.141s-.079-.1-.113-.147-.056-.073-.062-.085a.574.574,0,0,0-.1-.1.629.629,0,0,0-.085-.045c-.028-.011-.062-.023-.1-.034a.836.836,0,0,1-.124-.062,1.015,1.015,0,0,1-.153-.158.463.463,0,0,0-.181-.136.219.219,0,0,0-.062-.017l-.1-.017-.1-.017a.25.25,0,0,0-.051-.006,1.06,1.06,0,0,0-.13-.045c-.062-.023-.1-.04-.113-.045a.439.439,0,0,0-.09-.062c-.051-.034-.1-.062-.158-.1s-.107-.068-.158-.1a.8.8,0,0,0-.1-.051,2.128,2.128,0,0,0-.463-.13,2.4,2.4,0,0,1-.463-.119,2.055,2.055,0,0,1-.4-.175c-.124-.073-.243-.152-.356-.232-.13-.073-.248-.153-.373-.237a3.592,3.592,0,0,0-.378-.237.041.041,0,0,0-.023-.034c-.011-.011-.022-.023-.034-.023a6.717,6.717,0,0,1-.6-1.141,3.356,3.356,0,0,1-.237-1.277v-.152a1.335,1.335,0,0,1,.006-.153.659.659,0,0,1,.045-.164.169.169,0,0,0,.028-.051c.011-.028.028-.062.045-.1s.034-.068.045-.1a.144.144,0,0,0,.023-.051.255.255,0,0,1,.005-.051c.006-.028.011-.062.017-.1s.011-.068.017-.1a.125.125,0,0,1,.017-.051c.011-.028.023-.062.04-.1s.034-.085.056-.136.045-.1.073-.141a.66.66,0,0,1,.085-.113.262.262,0,0,1,.062-.068l.113-.113.107-.107a.37.37,0,0,0,.057-.062c.011,0,.023-.011.034-.034a.16.16,0,0,0,.023-.068.81.81,0,0,1,.254-.345,3.439,3.439,0,0,1,.384-.26.051.051,0,0,0,.04.017.015.015,0,0,0,.017-.017c.006,0,.017-.006.034-.023s.04-.028.062-.045.057-.04.1-.068h.153a.478.478,0,0,0,.1-.023q.085-.025.186-.051c.068-.017.13-.034.192-.045s.1-.023.113-.023h.39a.6.6,0,0,1,.113-.017l.186-.017.192-.017c.062-.006.1-.006.113-.006h.045a.082.082,0,0,1,.045.028.158.158,0,0,0,.045.028h.311a.744.744,0,0,1,.249.073c.1.045.2.1.3.152s.2.113.294.169.175.1.237.136a.175.175,0,0,0,.073.034c.039.011.062.023.068.023a.749.749,0,0,1,.136.107c.045.045.085.09.13.13a.885.885,0,0,0,.141.113.294.294,0,0,0,.169.045.183.183,0,0,0,.164-.073.471.471,0,0,0,.079-.169,2,2,0,0,0,.045-.2.822.822,0,0,1,.045-.164.1.1,0,0,1,.034-.062,1.009,1.009,0,0,1,.073-.085c.028-.034.051-.062.073-.085a.613.613,0,0,0,.045-.056.051.051,0,0,1,.04-.017h.017a.156.156,0,0,1,.153.113.573.573,0,0,1,.045.2v.085c0,.017-.006.045-.011.085a1.3,1.3,0,0,1-.028.13c-.011.045-.023.085-.034.13a.282.282,0,0,1-.023.068,13.961,13.961,0,0,0-.119,1.83c0,.1,0,.192.006.282s.005.186.005.282c-.011.034-.023.068-.034.113a.531.531,0,0,1-.057.13.324.324,0,0,1-.085.107.163.163,0,0,1-.1.045.227.227,0,0,1-.147-.04.276.276,0,0,1-.079-.1.867.867,0,0,1-.045-.13.892.892,0,0,0-.04-.13c-.057-.169-.119-.356-.175-.565s-.119-.39-.175-.548a1.224,1.224,0,0,0-.13-.22c-.062-.085-.13-.169-.209-.26s-.152-.169-.226-.249-.135-.147-.181-.2a2.28,2.28,0,0,1-.153-.243.491.491,0,0,0-.181-.2c-.057-.034-.13-.062-.209-.1s-.164-.068-.249-.1a2.513,2.513,0,0,0-.249-.079.838.838,0,0,0-.22-.034,1.058,1.058,0,0,0-.39.073,3.236,3.236,0,0,1-.4.13.182.182,0,0,0-.045.006q-.034.008-.085.017c-.034.006-.062.011-.085.017a.278.278,0,0,1-.062.006h-.2a.36.36,0,0,1-.04.034l-.073.057a.8.8,0,0,1-.085.062.265.265,0,0,0-.057.056,4.066,4.066,0,0,0-.35.356,1.478,1.478,0,0,0-.209.345,1.621,1.621,0,0,0-.107.4,3.247,3.247,0,0,0-.034.5c0,.045,0,.1.006.175s.011.153.023.237a1.224,1.224,0,0,0,.045.226.383.383,0,0,0,.073.152l.655.627c.017.011.04.023.062.039a.608.608,0,0,0,.085.045c.034.017.062.028.085.04s.045.017.057.023.022.017.051.04a.556.556,0,0,0,.1.062c.034.023.068.04.1.062a.351.351,0,0,1,.051.034,1.489,1.489,0,0,0,.345.164,2.409,2.409,0,0,1,.35.147l.09.034c.045.017.09.04.141.062s.1.04.141.062a.429.429,0,0,1,.09.045.225.225,0,0,1,.062.034c.04.023.079.045.124.068a1.379,1.379,0,0,0,.13.062c.04.017.068.028.085.034a.33.33,0,0,1,.057.006.62.62,0,0,1,.1.011.6.6,0,0,1,.107.023.228.228,0,0,1,.068.023.181.181,0,0,1,.073.04.4.4,0,0,0,.068.045c.023.011.057.028.107.051s.1.051.152.073.1.051.152.073.079.04.1.051a2.892,2.892,0,0,1,.751.52,3.623,3.623,0,0,1,.6.74,3.891,3.891,0,0,1,.4.87,3.014,3.014,0,0,1,.141.909v.085c-.005.051-.011.124-.023.22s-.017.186-.028.283-.023.181-.034.254a1.006,1.006,0,0,1-.023.13,1.35,1.35,0,0,1-.1.322,2.741,2.741,0,0,1-.152.282c-.062.09-.124.181-.192.271s-.136.181-.2.277a.086.086,0,0,1-.017.034.651.651,0,0,0-.034.062.6.6,0,0,1-.034.062.426.426,0,0,0-.023.04.357.357,0,0,1-.181.158,1.383,1.383,0,0,0-.209.119.622.622,0,0,1-.045.056c-.022.028-.051.056-.073.085s-.051.056-.073.079a.12.12,0,0,1-.045.034,1.942,1.942,0,0,1-.277.152,2.288,2.288,0,0,1-.277.1c-.1.028-.192.051-.288.073s-.2.051-.316.085-.2.062-.282.1a.8.8,0,0,1-.3.045h-.158l-.367-.034c-.175-.017-.362-.04-.554-.062s-.379-.04-.548-.062C1001.641,259.416,1001.517,259.4,1001.449,259.387Z" transform="translate(-943.038 -233.782)" fill="#729eb8" stroke="#3b3b3b" stroke-width="0.5"/>
    <path id="text_l_2" d="M1156.127,335.3l-1.593.023h-.141c-.04,0-.1,0-.2.006s-.2.006-.3.006-.209,0-.305.006-.164.006-.2.006a.384.384,0,0,1-.068-.006.849.849,0,0,1-.113-.011l-.124-.017a.554.554,0,0,0-.085-.006.56.56,0,0,1-.136-.079.16.16,0,0,1-.062-.13c0-.1.034-.158.1-.181a1.2,1.2,0,0,1,.237-.062,2.211,2.211,0,0,0,.26-.068.292.292,0,0,0,.186-.186.258.258,0,0,0,.006-.079,1.006,1.006,0,0,0-.006-.13c0-.045-.006-.073-.006-.085.006-.068.017-.192.028-.362s.028-.356.045-.554.028-.384.045-.559.023-.3.028-.373a.212.212,0,0,0,.028-.045l.034-.085a.79.79,0,0,0,.028-.09.485.485,0,0,1,.023-.068v-.017a.518.518,0,0,0-.057-.249.653.653,0,0,1-.057-.305,11.748,11.748,0,0,1,.057-1.186,11.567,11.567,0,0,0,.057-1.175.728.728,0,0,0-.074-.367.448.448,0,0,0-.2-.186.784.784,0,0,0-.248-.073c-.085-.006-.17-.017-.249-.028a.48.48,0,0,1-.2-.062.158.158,0,0,1-.073-.153.323.323,0,0,1,.062-.186.192.192,0,0,1,.164-.085h.119c.017,0,.062,0,.13.006s.152.011.237.023.164.017.237.023.124.006.141.006h2.378a.671.671,0,0,1,.169.1.194.194,0,0,1,.085.152.345.345,0,0,1-.011.085.445.445,0,0,1-.051.113c-.017.006-.045.011-.079.023a.823.823,0,0,0-.113.028,1.1,1.1,0,0,1-.113.028.355.355,0,0,0-.079.023.863.863,0,0,0-.1.006c-.051,0-.113.006-.169.011l-.17.017a.609.609,0,0,0-.1.017.163.163,0,0,0-.107.073.459.459,0,0,0-.051.141,1.532,1.532,0,0,0-.023.158c0,.051-.006.1-.006.13-.022.169-.04.328-.051.469s-.023.288-.023.435c0,.068,0,.136.006.2s.006.141.006.226a.174.174,0,0,0-.051.073.344.344,0,0,0-.011.085.2.2,0,0,0,.011.062.227.227,0,0,0,.051.079v1.661a.7.7,0,0,0-.034.13c-.011.062-.022.1-.022.124s0,.085-.006.169-.011.181-.017.277-.011.192-.017.277-.006.136-.006.158a.27.27,0,0,0-.017.068.7.7,0,0,0-.011.113c0,.04-.006.079-.006.113s-.005.057-.005.068v.039c0,.023.005.057.011.113s.017.107.028.169.023.113.034.164a.556.556,0,0,1,.017.107.2.2,0,0,0,.13.113c.056.017.113.028.169.04l.1.023c.045.006.084.017.124.023a.84.84,0,0,0,.113.011c.034,0,.062.006.073.006h1.175a.485.485,0,0,0,.107.034c.051.011.107.028.164.045s.113.028.164.04l.107.023h.113c.011,0,.04-.028.085-.079s.079-.09.1-.119.073-.079.13-.136.107-.119.164-.175.1-.107.141-.153a.483.483,0,0,0,.073-.085.3.3,0,0,0,.045-.1c.023-.051.04-.085.045-.1l.073-.073a.608.608,0,0,0,.073-.085.125.125,0,0,0,.045-.057.667.667,0,0,0,.062-.107c.023-.04.04-.079.057-.113l.034-.068a.712.712,0,0,1,.062-.085c.028-.045.062-.085.091-.136a.9.9,0,0,0,.085-.136.67.67,0,0,1,.056-.085.328.328,0,0,1,.045-.045c.017-.023.039-.045.062-.073a.846.846,0,0,1,.062-.073.232.232,0,0,0,.034-.062.3.3,0,0,0,.085-.073c.034-.04.056-.062.062-.068h.034c.057,0,.1.04.113.113a1.057,1.057,0,0,1,.023.226v.35a.381.381,0,0,0-.034.119c-.011.062-.028.13-.045.209s-.034.141-.051.209-.028.1-.034.119a.623.623,0,0,1-.006.085,1.3,1.3,0,0,1-.011.141,1.3,1.3,0,0,0-.011.141.14.14,0,0,1-.011.073.153.153,0,0,1-.017.045c-.011.023-.023.051-.034.079l-.034.085c-.011.028-.017.045-.017.045V335a.406.406,0,0,1-.181.345.665.665,0,0,1-.384.107h-.175c-.017,0-.057,0-.13-.006s-.141-.011-.22-.023-.152-.017-.226-.023-.113-.006-.13-.006h-.988c-.028,0-.074,0-.136-.006l-.209-.017-.209-.017c-.068-.006-.113-.006-.13-.006a.374.374,0,0,1-.073-.017A.509.509,0,0,1,1156.127,335.3Z" transform="translate(-1087.678 -309.641)" fill="#729eb8" stroke="#3b3b3b" stroke-width="0.5"/>
    <path id="text_a_3" d="M1281.1,332.08a.276.276,0,0,1,.073-.215.683.683,0,0,1,.17-.113c.068-.028.136-.051.209-.073a.573.573,0,0,0,.2-.09.434.434,0,0,0,.09-.062c.04-.028.079-.062.124-.09s.079-.062.113-.085.045-.04.045-.045a.309.309,0,0,0,.062-.073.356.356,0,0,1,.051-.073.135.135,0,0,1,.023-.062.723.723,0,0,0,.045-.1c.017-.034.034-.062.045-.09a.138.138,0,0,0,.023-.062c.045-.056.085-.119.136-.175a1.625,1.625,0,0,0,.119-.175,2.917,2.917,0,0,0,.231-.565,3.308,3.308,0,0,1,.22-.571c.006-.011.017-.04.04-.09s.045-.1.073-.158.056-.107.079-.153a.279.279,0,0,1,.051-.085.187.187,0,0,1,.005-.045c.006-.023.011-.051.017-.079s.011-.057.017-.079a.2.2,0,0,0,.005-.051.163.163,0,0,1,.023-.062.679.679,0,0,1,.045-.09c.017-.034.034-.062.051-.09s.028-.051.034-.062v-.209a.279.279,0,0,1,.023-.062.488.488,0,0,1,.028-.068c0-.011.017-.028.045-.056s.051-.04.062-.04a1.819,1.819,0,0,0,.119-.271c.028-.085.051-.164.079-.243a.814.814,0,0,1,.113-.22.786.786,0,0,1,.22-.209.408.408,0,0,1,.006-.073.508.508,0,0,0,.006-.09.432.432,0,0,0-.062-.22.464.464,0,0,1-.062-.237V326.3a.544.544,0,0,1,.023-.141c.011-.062.023-.13.034-.192s.023-.119.034-.169a.6.6,0,0,0,.017-.1.165.165,0,0,0,.028-.09.131.131,0,0,1,.068-.107c.023-.006.073-.023.152-.045s.13-.04.158-.051a.969.969,0,0,0,.152-.153c.051-.056.1-.113.153-.164a.752.752,0,0,1,.17-.13.427.427,0,0,1,.232-.056h.085a1.154,1.154,0,0,1,.181.288,1.745,1.745,0,0,1,.09.305,3.125,3.125,0,0,1,.051.322q.017.161.051.339c.017.006.04.034.068.085a.385.385,0,0,1,.045.1,1.639,1.639,0,0,1,.085.356,2.144,2.144,0,0,0,.062.339c.045.169.09.339.141.5s.107.333.169.5.1.333.153.474.1.316.141.52c.017.056.028.124.045.2s.028.153.045.226.034.153.045.22a.959.959,0,0,0,.062.181c0,.023.023.056.068.107s.073.079.085.09.006.028.011.062a.4.4,0,0,0,.034.1c.012.034.023.068.034.1s.017.051.023.062a.144.144,0,0,0,.023.051.68.68,0,0,0,.045.09.705.705,0,0,1,.045.1c.011.034.023.051.023.056a1.624,1.624,0,0,1,.062.215c.023.079.039.158.062.243a1.476,1.476,0,0,0,.068.237.817.817,0,0,0,.1.2.705.705,0,0,0,.13.13c.051.045.1.09.152.141a1.1,1.1,0,0,1,.124.158.337.337,0,0,1,.051.181v.04a.213.213,0,0,1-.006.062.055.055,0,0,1-.045.04.235.235,0,0,1-.056.017l-.085.017c-.034.006-.062.011-.085.017a.276.276,0,0,1-.062.006H1286.1a1.417,1.417,0,0,1-.147-.017c-.079-.011-.158-.023-.249-.034s-.175-.023-.249-.034-.124-.023-.141-.023h-.119a.364.364,0,0,1,.13-.3,1.608,1.608,0,0,1,.282-.181,1.593,1.593,0,0,0,.288-.192.371.371,0,0,0,.113-.4.255.255,0,0,1-.006-.062.684.684,0,0,0-.017-.079c-.011-.045-.022-.1-.04-.158s-.034-.119-.045-.175-.034-.1-.045-.136c-.028-.085-.051-.169-.074-.249a.683.683,0,0,0-.1-.215.548.548,0,0,0-.164-.158.566.566,0,0,0-.249-.085h-1.1c-.028.006-.068.011-.119.023s-.107.017-.164.023-.107.011-.153.011-.079.006-.1.006a.88.88,0,0,0-.249.1.353.353,0,0,0-.153.2.679.679,0,0,0-.045.158c-.017.068-.034.136-.045.209s-.028.13-.04.181a.683.683,0,0,0-.017.1c0,.011-.005.056-.011.13s-.011.136-.011.181a.179.179,0,0,0,.006.045c0,.028.006.056.006.085s.006.062.006.09.005.051.005.062a.822.822,0,0,0,.175.136c.079.045.158.1.237.147a2.307,2.307,0,0,1,.215.152.3.3,0,0,1,.113.153.173.173,0,0,1-.045.136.46.46,0,0,1-.13.1.775.775,0,0,1-.158.062.8.8,0,0,1-.141.023.463.463,0,0,1-.158-.028.464.464,0,0,0-.158-.028h-.057a.33.33,0,0,0-.073.028.5.5,0,0,1-.073.028h-.452a.354.354,0,0,0-.073.023c-.045.011-.068.023-.074.023h-.113a.447.447,0,0,1-.085-.023c-.051-.011-.079-.023-.085-.023h-.6A.286.286,0,0,1,1281.1,332.08Zm2.621-3.231v.023a.03.03,0,0,1,.011.023c0,.011.011.023.022.034a.093.093,0,0,0,.023.04c.034.028.079.068.141.113a1.035,1.035,0,0,0,.113.085h.4a.083.083,0,0,1,.045.028.156.156,0,0,0,.045.028h.271c.034,0,.079,0,.147-.006a1.178,1.178,0,0,0,.2-.023.436.436,0,0,0,.169-.062.126.126,0,0,0,.074-.113v-.057a.3.3,0,0,1-.023-.045c-.011-.023-.023-.051-.034-.073s-.023-.051-.034-.079a.186.186,0,0,1-.017-.056c-.045-.136-.1-.271-.147-.4s-.1-.254-.147-.373a1.521,1.521,0,0,1-.062-.192.416.416,0,0,0-.085-.175.628.628,0,0,1-.056-.045,1.07,1.07,0,0,1-.085-.079.833.833,0,0,0-.079-.073c-.022-.023-.034-.034-.034-.04a.231.231,0,0,1-.073-.1c-.011-.04-.045-.057-.1-.057h-.023a2.073,2.073,0,0,1-.192.48,2.987,2.987,0,0,0-.215.452.618.618,0,0,1-.022.141c-.011.068-.023.107-.034.113a.34.34,0,0,1-.039.1c-.023.04-.045.085-.068.13a1.462,1.462,0,0,0-.062.136A.293.293,0,0,0,1283.721,328.849Z" transform="translate(-1208.731 -306.622)" fill="#729eb8" stroke="#3b3b3b" stroke-width="0.5"/>
    <path id="text_v_4" d="M1404.39,330.032a.212.212,0,0,1-.028-.045.1.1,0,0,0-.034-.045.325.325,0,0,0-.045-.056c-.017-.017-.034-.028-.045-.04a1.953,1.953,0,0,1-.13-.4,3.659,3.659,0,0,0-.108-.4c-.023-.056-.056-.158-.1-.3s-.1-.288-.152-.452-.1-.311-.153-.452-.085-.237-.1-.3a1.686,1.686,0,0,0-.237-.328,2.6,2.6,0,0,0-.311-.277c-.017-.017-.028-.034-.039-.045-.034-.034-.051-.045-.057-.045a.965.965,0,0,0-.141-.006c-.062,0-.124,0-.181-.006a.351.351,0,0,1-.158-.051.148.148,0,0,1-.068-.136v-.04a.271.271,0,0,1,.141-.085.63.63,0,0,1,.152-.017.874.874,0,0,1,.124.006c.04,0,.074.006.107.006a.705.705,0,0,0,.119-.011.271.271,0,0,0,.119-.051h.74l.1.062h1.83a.091.091,0,0,1,.09.045.265.265,0,0,1,.023.09.222.222,0,0,1-.045.141c-.034.034-.068.073-.113.113a.433.433,0,0,1-.2.1q-.119.025-.22.051a.42.42,0,0,0-.187.1.288.288,0,0,0-.079.226v.023a4.656,4.656,0,0,0,.26.881c.119.288.226.57.327.859a1.547,1.547,0,0,1,.073.3,2.154,2.154,0,0,0,.068.3,1.78,1.78,0,0,0,.107.305c.045.1.09.192.13.282a.124.124,0,0,1,.04.073.363.363,0,0,1,.017.085,5.015,5.015,0,0,0,.2.554c.079.181.158.367.249.542l.039.04h.057a.029.029,0,0,0,.028-.023.038.038,0,0,1,.028-.023q.077-.169.17-.373c.057-.136.113-.277.169-.418s.1-.282.147-.424.085-.271.113-.384a.823.823,0,0,0,.023-.1c.006-.051.017-.107.028-.169s.023-.119.028-.175a.447.447,0,0,1,.023-.107.172.172,0,0,1,.023-.073.472.472,0,0,0,.023-.062,4.325,4.325,0,0,0,.26-.616c.068-.2.13-.418.192-.638.045-.136.09-.271.141-.4a1.163,1.163,0,0,0,.073-.429c0-.079-.051-.136-.153-.164s-.22-.057-.344-.079a1.532,1.532,0,0,1-.345-.1.228.228,0,0,1-.153-.22.26.26,0,0,0,.017-.04c.006-.023.011-.04.022-.045a.825.825,0,0,1,.057-.079c.028-.04.045-.068.057-.085h.316a2.769,2.769,0,0,1,.435.034,2.674,2.674,0,0,0,.424.034,3.133,3.133,0,0,0,.463-.034,2.989,2.989,0,0,1,.452-.034c.04,0,.085.006.141.011a.714.714,0,0,1,.158.04.338.338,0,0,1,.13.079.153.153,0,0,1,.057.124.216.216,0,0,1-.141.186,2.189,2.189,0,0,1-.322.141c-.124.045-.237.09-.356.13a.5.5,0,0,0-.226.141,1.031,1.031,0,0,0-.141.271,2.82,2.82,0,0,0-.1.311c-.028.107-.051.215-.073.316s-.051.209-.073.305a8.329,8.329,0,0,1-.316.842c-.124.277-.232.559-.333.842-.152.429-.328.853-.52,1.265s-.367.836-.525,1.271a.743.743,0,0,0-.051.13c-.023.073-.051.147-.073.232s-.051.158-.073.237a.708.708,0,0,0-.034.136,1.1,1.1,0,0,1-.192.3.41.41,0,0,1-.316.147.258.258,0,0,1-.2-.062.984.984,0,0,1-.136-.186.5.5,0,0,1-.079-.158c-.006-.04-.017-.1-.04-.192-.147-.559-.316-1.1-.5-1.621A12.652,12.652,0,0,1,1404.39,330.032Z" transform="translate(-1323.085 -308.037)" fill="#729eb8" stroke="#3b3b3b" stroke-width="0.5"/>
    <path id="text_e_6" d="M1544.014,331.406h-.04a.463.463,0,0,0-.113.023.577.577,0,0,0-.13.034H1541.9c-.011-.017-.023-.034-.04-.057a.649.649,0,0,1-.056-.085v-.045a.175.175,0,0,1,.085-.158.518.518,0,0,1,.2-.079,1.53,1.53,0,0,1,.232-.034.6.6,0,0,0,.181-.034,1.093,1.093,0,0,0,.13-.09.476.476,0,0,0,.107-.107c.006-.017.011-.045.023-.09s.017-.09.023-.141a1.1,1.1,0,0,0,.011-.136c0-.045.006-.073.006-.085a2.169,2.169,0,0,1,.062-.322,1.055,1.055,0,0,0,.045-.322v-.949a.183.183,0,0,1,.006-.045.392.392,0,0,0,.011-.079.3.3,0,0,1,.011-.073.179.179,0,0,0,.006-.045v-.045a.887.887,0,0,0-.017-.136c-.011-.062-.017-.107-.023-.136l-.034-1.887-.006-.141v-1.248a.3.3,0,0,0-.045-.085c-.034-.045-.056-.085-.079-.113a.415.415,0,0,0-.215-.147c-.1-.034-.2-.062-.311-.09a1.652,1.652,0,0,1-.282-.1c-.085-.04-.124-.09-.124-.158a.157.157,0,0,1,.045-.113.306.306,0,0,1,.1-.062.48.48,0,0,1,.13-.023c.045,0,.085-.006.119-.006h.1c.023,0,.062,0,.13.006s.13.006.2.011.13.011.192.011a.592.592,0,0,1,.13.011l.045.056h.056a.178.178,0,0,1,.074-.034.725.725,0,0,1,.073-.023h.949c.023,0,.062-.006.13-.011a.211.211,0,0,0,.113-.028h2.2a.129.129,0,0,0,.073.028c.04.006.062.011.079.011h.548a.366.366,0,0,1,.249.113.947.947,0,0,1,.153.249v.587a.789.789,0,0,0,.028.1c.017.056.028.09.028.1v.073c0,.023-.005.062-.011.119s-.023.119-.034.181a.708.708,0,0,1-.062.164c-.023.045-.051.073-.085.073h-.006a1.184,1.184,0,0,1-.209-.192,1.7,1.7,0,0,1-.141-.209l-.051-.1a.458.458,0,0,0-.062-.1,1.47,1.47,0,0,0-.119-.226,1.18,1.18,0,0,0-.181-.226.972.972,0,0,0-.232-.169.534.534,0,0,0-.254-.068h-1.712c-.028-.028-.051-.045-.068-.045a.276.276,0,0,0-.073-.006h-.056c-.023.011-.057.028-.107.051a.213.213,0,0,0-.09.062c-.006,0-.011.011-.011.034s-.006.051-.006.079-.005.057-.005.079a.072.072,0,0,1-.011.045.091.091,0,0,1-.023.051.194.194,0,0,1-.034.051c0,.051,0,.141-.006.271s-.011.26-.017.4-.011.277-.017.4-.011.215-.017.26v.294q.009.051.017.152c.006.068.011.141.017.215s.011.141.017.209.006.107.006.136a.421.421,0,0,0,.1.051c.045.017.1.034.147.051a.77.77,0,0,0,.147.034,1.084,1.084,0,0,0,.113.011h.1c.13-.011.266-.017.4-.023a1.517,1.517,0,0,0,.373-.062.84.84,0,0,0,.3-.181.7.7,0,0,0,.181-.384.759.759,0,0,1,.006-.1c.005-.045.011-.1.017-.152l.017-.152a.8.8,0,0,0,.006-.1.376.376,0,0,1,.135-.13.345.345,0,0,1,.175-.068.19.19,0,0,1,.175.09.35.35,0,0,1,.056.2,1.482,1.482,0,0,1-.005.158.613.613,0,0,1-.034.158v1.593a.279.279,0,0,1,.034.13c0,.045.005.085.005.13v.356a.5.5,0,0,1-.045.209q-.042.085-.2.085a.229.229,0,0,1-.2-.09.775.775,0,0,1-.113-.237,2.392,2.392,0,0,1-.062-.3,2.481,2.481,0,0,0-.062-.305.769.769,0,0,0-.1-.237.2.2,0,0,0-.181-.09h-.085a.347.347,0,0,1-.085.017l-.147.017-.141.017a.584.584,0,0,1-.073.006h-.554a.517.517,0,0,0-.237.113.68.68,0,0,0-.136.2.888.888,0,0,0-.062.249c-.006.09-.011.181-.011.277v.277a.54.54,0,0,1-.006.1.491.491,0,0,0-.006.085.4.4,0,0,1-.023.1.391.391,0,0,0-.023.1v.667a3.259,3.259,0,0,0,.017.345,1.454,1.454,0,0,0,.085.345.82.82,0,0,0,.373.119c.119.006.243.011.379.023a1.207,1.207,0,0,1,.141.017c.073.011.153.023.237.04s.164.028.237.04a1.369,1.369,0,0,0,.141.017h.435c0,.006.017.023.045.045a.276.276,0,0,0,.068.045h.039a.113.113,0,0,0,.045-.023l.034-.017a.043.043,0,0,1,.023-.006c.011,0,.028.017.045.045a.492.492,0,0,1,.045.062h.057a.255.255,0,0,1,.017-.062c.011-.028.023-.045.04-.045h.04a2.809,2.809,0,0,0,.8-.695c.214-.277.429-.559.638-.853l.023-.006c.005,0,.011,0,.011.006a.02.02,0,0,0,.011.006h.005c.006,0,.023.011.045.04a.609.609,0,0,1,.045.056v.35a1.557,1.557,0,0,1-.017.175c-.011.085-.022.175-.028.271s-.017.186-.028.271a1.594,1.594,0,0,0-.017.175.33.33,0,0,0-.062.136c-.005.045-.017.1-.023.141a.554.554,0,0,1-.034.13.211.211,0,0,1-.085.107c-.034,0-.09,0-.181.006s-.181.006-.277.011l-.271.017c-.085.006-.141.006-.175.006a.237.237,0,0,0-.051.017c-.028.011-.062.023-.1.04s-.068.028-.1.04a.235.235,0,0,1-.051.017.769.769,0,0,1-.1-.028c-.057-.017-.09-.028-.1-.028h-.034a2.759,2.759,0,0,0-.373.028,3.026,3.026,0,0,1-.4.028,5.489,5.489,0,0,1-.808-.056A3.615,3.615,0,0,0,1544.014,331.406Z" transform="translate(-1454.704 -305.773)" fill="#729eb8" stroke="#3b3b3b" stroke-width="0.5"/>
    <path id="text_v_7" d="M1648.466,259.511c-.023-.057-.056-.164-.107-.316s-.107-.316-.164-.491-.113-.339-.169-.491-.09-.26-.113-.316a.192.192,0,0,0-.006-.051.34.34,0,0,0-.011-.073.383.383,0,0,1-.011-.073.073.073,0,0,0-.011-.045c-.011-.017-.028-.056-.062-.113s-.062-.124-.1-.192-.068-.13-.1-.181a.493.493,0,0,0-.062-.1.363.363,0,0,0-.017-.085c-.012-.04-.023-.085-.034-.13a1.244,1.244,0,0,1-.028-.124.228.228,0,0,0-.023-.073c-.084-.249-.175-.5-.277-.746s-.187-.5-.266-.751a.25.25,0,0,0-.006-.051c-.006-.028-.011-.062-.017-.1s-.011-.068-.017-.1a.122.122,0,0,0-.017-.051,5.223,5.223,0,0,0-.294-1c-.136-.345-.266-.672-.39-.989-.011,0-.023-.028-.028-.079s-.011-.09-.011-.119a4.049,4.049,0,0,0-.181-.571c-.068-.169-.141-.373-.221-.6a4.809,4.809,0,0,1-.147-.491,3.868,3.868,0,0,0-.169-.531,1.351,1.351,0,0,0-.271-.435.69.69,0,0,0-.452-.22.861.861,0,0,1-.1-.006c-.051-.006-.113-.011-.169-.023s-.119-.017-.17-.023a.86.86,0,0,0-.1-.006.507.507,0,0,1-.231-.085.234.234,0,0,1-.119-.209.277.277,0,0,1,.141-.277.738.738,0,0,1,.328-.068h.079a.1.1,0,0,1,.034.006.2.2,0,0,0,.062.011.2.2,0,0,1,.062.011.15.15,0,0,0,.04.006h.587a.228.228,0,0,1,.074.023.227.227,0,0,0,.073.023h.339c.017,0,.057,0,.124-.006l.209-.017.209-.017c.068-.006.107-.006.124-.006h1.615a1.359,1.359,0,0,1,.277-.034c.079,0,.169-.006.277-.006.051,0,.107,0,.169.006a.462.462,0,0,1,.175.034.329.329,0,0,1,.141.085.287.287,0,0,1,.017.316.255.255,0,0,1-.107.079.624.624,0,0,1-.147.04,1.426,1.426,0,0,0-.152.028c-.17.051-.333.1-.492.13a3.441,3.441,0,0,1-.514.068.345.345,0,0,0-.152.192.836.836,0,0,0-.045.26.542.542,0,0,0,.034.181,1.071,1.071,0,0,0,.085.181,1.385,1.385,0,0,1,.085.186.479.479,0,0,1,.045.2v.237c.011.011.04.034.079.073a.2.2,0,0,1,.062.073c.011,0,.023.017.034.045a.28.28,0,0,1,.023.062l.034.1a1.443,1.443,0,0,1,.045.164c.017.056.028.113.045.169s.022.09.028.119a.708.708,0,0,1,.045.158c.023.085.045.175.062.277s.039.192.056.277.028.136.034.158a.208.208,0,0,0,.034.085c.023.04.045.085.068.13a1.344,1.344,0,0,1,.062.13.326.326,0,0,0,.034.068c.022.056.045.124.073.2l.085.237a2,2,0,0,1,.068.249,1.13,1.13,0,0,1,.028.22.157.157,0,0,1-.006.045.154.154,0,0,0-.006.051,2.345,2.345,0,0,1,.136.26,1.869,1.869,0,0,1,.085.232c.023.079.045.153.062.237s.04.169.068.26c.011.028.034.09.068.192s.073.209.113.328.074.232.107.333.051.164.062.186.017.056.034.119a1.8,1.8,0,0,1,.045.2c.017.073.028.141.045.2a.379.379,0,0,0,.034.119.837.837,0,0,0,.141.249.414.414,0,0,1,.1.265.831.831,0,0,0,.073.26c.051.13.107.294.181.5a1.985,1.985,0,0,1,.073.249,1.184,1.184,0,0,1,.022.249,1.328,1.328,0,0,1-.068.424c-.045.13-.09.271-.141.424a.909.909,0,0,1-.028.153c-.017.073-.04.153-.062.237s-.04.158-.062.232-.028.113-.034.13c-.017.051-.034.119-.062.2a1.527,1.527,0,0,1-.084.226.646.646,0,0,1-.13.186.253.253,0,0,1-.181.079.165.165,0,0,1-.147-.073.582.582,0,0,1-.079-.169,1.109,1.109,0,0,1-.04-.2.6.6,0,0,0-.028-.147c0-.006-.005-.017-.011-.04a.135.135,0,0,0-.034-.062c-.011-.023-.028-.04-.039-.062a.2.2,0,0,0-.028-.034.489.489,0,0,0-.034-.119c-.023-.062-.051-.13-.073-.209s-.051-.141-.079-.209a.478.478,0,0,1-.045-.119.523.523,0,0,1-.057-.09A.28.28,0,0,0,1648.466,259.511Zm3.977-8.812c0-.051-.005-.119-.011-.2a1.6,1.6,0,0,0-.04-.232.618.618,0,0,0-.085-.209.23.23,0,0,0-.153-.113,5.888,5.888,0,0,0-.587-.107,4.85,4.85,0,0,1-.559-.1c-.068-.017-.13-.028-.187-.04a.465.465,0,0,1-.141-.051.229.229,0,0,1-.09-.1.4.4,0,0,1-.034-.181.257.257,0,0,1,.04-.152.228.228,0,0,1,.1-.079.57.57,0,0,1,.141-.028c.051,0,.1-.006.152-.006a3.161,3.161,0,0,1,.407.023c.13.011.26.023.4.023.4,0,.791-.006,1.18-.023s.785-.023,1.181-.023h.661a.883.883,0,0,1,.107.006c.051,0,.107.006.17.011s.119.011.169.011a.439.439,0,0,1,.107.011.306.306,0,0,1,.13.073.165.165,0,0,1,.068.124.184.184,0,0,1-.062.141,1.748,1.748,0,0,1-.141.113.364.364,0,0,1-.175.085,1.32,1.32,0,0,1-.215.023c-.068,0-.135,0-.209-.006s-.135-.006-.209-.006h-.1a1.528,1.528,0,0,0-.514.186,1.669,1.669,0,0,0-.435.356,2.867,2.867,0,0,0-.226.4c-.073.152-.141.305-.2.469s-.118.322-.17.475-.1.288-.141.407a8.4,8.4,0,0,1-.316.842c-.118.277-.226.559-.317.842-.051.147-.1.3-.146.452a4.4,4.4,0,0,1-.152.435.6.6,0,0,0-.04.085c-.017.04-.034.079-.057.124a1.023,1.023,0,0,1-.062.113.268.268,0,0,1-.045.068.346.346,0,0,0-.034.04.58.58,0,0,1-.051.062.425.425,0,0,0-.045.062c-.011.017-.023.028-.023.034a.124.124,0,0,0-.017.045l-.017.085c-.005.028-.011.057-.017.079a.179.179,0,0,0-.006.045.268.268,0,0,1-.023.062c-.017.034-.034.073-.051.113s-.034.079-.045.113a.468.468,0,0,0-.023.068.127.127,0,0,0-.017.051.519.519,0,0,0-.011.09c0,.034-.006.062-.006.1a.325.325,0,0,1-.006.057,1.532,1.532,0,0,1-.152.356,1.836,1.836,0,0,0-.158.339c-.079.22-.153.418-.22.6a4.5,4.5,0,0,1-.277.6l-.034.017-.017.017-.006.006v-.04a2.785,2.785,0,0,1,.034-.458,3.9,3.9,0,0,1,.085-.39c.034-.124.073-.249.113-.373a3.389,3.389,0,0,0,.113-.418c.034-.2.068-.39.113-.576s.09-.378.141-.576c0-.006.005-.017.011-.04s.017-.045.023-.073a.276.276,0,0,1,.028-.073.2.2,0,0,1,.034-.051.165.165,0,0,1,.045-.079.545.545,0,0,1,.062-.073.379.379,0,0,1,.023-.09.5.5,0,0,1,.034-.107c0-.017.006-.045.011-.1s.017-.1.028-.158.022-.113.034-.158.017-.079.023-.1a.845.845,0,0,1,.034-.1c.023-.062.039-.107.051-.141a.087.087,0,0,1,.017-.034.615.615,0,0,0,.034-.062.569.569,0,0,1,.034-.062.176.176,0,0,1,.023-.04.826.826,0,0,1,.005-.1,1.472,1.472,0,0,1,.011-.153q.008-.085.017-.153c.006-.045.011-.079.023-.085a.328.328,0,0,1,.028-.073c.017-.039.04-.079.062-.124s.04-.085.062-.13.028-.068.034-.085.028-.068.057-.13.045-.1.056-.124c.006-.057.011-.1.017-.136s.011-.062.017-.09a.118.118,0,0,1,.017-.051c.005-.023.022-.079.045-.169s.056-.186.091-.282.067-.192.1-.277a1.553,1.553,0,0,1,.062-.164.324.324,0,0,1,.006-.057.687.687,0,0,1,.011-.1.5.5,0,0,1,.023-.1c.006-.028.017-.045.023-.045a.283.283,0,0,1,.079-.153A.13.13,0,0,0,1652.443,250.7Z" transform="translate(-1550.943 -235.103)" fill="#729eb8" stroke="#3b3b3b" stroke-width="0.5"/>
    <path id="text_o_8" d="M1830.9,332.072a2.57,2.57,0,0,1,.034-.367q.034-.22.085-.458c.04-.158.079-.305.13-.452a2.742,2.742,0,0,1,.153-.356,1.12,1.12,0,0,1,.2-.277c.079-.079.158-.169.249-.277a.6.6,0,0,0,.118-.215.6.6,0,0,1,.119-.215,1.481,1.481,0,0,1,.107-.113,1.347,1.347,0,0,1,.107-.1c.011-.006.034-.011.068-.023a.273.273,0,0,1,.068-.017,1.142,1.142,0,0,0,.328-.249,1.35,1.35,0,0,1,.322-.26,2,2,0,0,1,.74-.237,5.417,5.417,0,0,1,.786-.056.287.287,0,0,1,.175.062.609.609,0,0,0,.181.09.281.281,0,0,0,.073.017.847.847,0,0,0,.124.011,1,1,0,0,1,.13.011.275.275,0,0,1,.073.017.227.227,0,0,1,.074.023c.04.011.062.023.079.028s.034.017.074.034a1.183,1.183,0,0,1,.119.062c.045.023.084.045.124.068a.477.477,0,0,0,.085.04,1.649,1.649,0,0,0,.249.073.69.69,0,0,1,.243.107.28.28,0,0,1,.051.045,1.011,1.011,0,0,0,.079.085l.079.079.045.045a.212.212,0,0,0,.045.028.493.493,0,0,1,.073.045c.028.017.051.034.079.051s.045.028.056.034a1.9,1.9,0,0,1,.412.48,2.881,2.881,0,0,1,.277.616,3.938,3.938,0,0,1,.158.666,4.241,4.241,0,0,1,.051.633v.22a1.547,1.547,0,0,0-.023.22c-.006.09-.011.186-.017.277s-.011.169-.011.237-.005.107-.005.113-.017.057-.034.124a2.241,2.241,0,0,1-.068.22l-.085.237a1.7,1.7,0,0,1-.068.169.349.349,0,0,0-.028.062c-.011.028-.028.062-.045.1s-.034.068-.045.1a.137.137,0,0,0-.023.062.327.327,0,0,1-.028.073.273.273,0,0,0-.028.079.955.955,0,0,1-.1.113c-.045.056-.1.113-.153.181s-.1.124-.152.181-.079.1-.1.119a.742.742,0,0,0-.079.057.18.18,0,0,1-.074.04.072.072,0,0,1-.062.04.449.449,0,0,1-.09.085c-.045.04-.09.073-.141.113a1.614,1.614,0,0,1-.13.1l-.068.056a.345.345,0,0,1-.147.062.844.844,0,0,0-.164.034.186.186,0,0,1-.04.023.667.667,0,0,0-.062.034.3.3,0,0,1-.062.028.227.227,0,0,1-.034.011c-.006,0-.023.006-.056.011s-.068.017-.108.023a.669.669,0,0,0-.113.023c-.034.006-.057.011-.067.011a.412.412,0,0,0-.13.04,1.3,1.3,0,0,0-.119.057h-.813c-.124,0-.243,0-.356-.006a2.078,2.078,0,0,1-.333-.034.146.146,0,0,1-.04-.017c-.022-.011-.045-.023-.073-.04a.412.412,0,0,1-.073-.045.423.423,0,0,0-.04-.023.181.181,0,0,1-.045-.006.431.431,0,0,1-.085-.011l-.079-.017a.182.182,0,0,0-.045-.006.237.237,0,0,1-.079-.045c-.045-.034-.068-.045-.079-.045a.256.256,0,0,0-.091-.045.923.923,0,0,0-.107-.045,2.143,2.143,0,0,1-.367-.226,2.307,2.307,0,0,1-.35-.316,3.688,3.688,0,0,1-.3-.367,1.917,1.917,0,0,1-.215-.39.561.561,0,0,1-.034-.136c-.011-.068-.022-.107-.022-.119a.337.337,0,0,1-.045-.073.675.675,0,0,0-.057-.085c-.045-.09-.09-.2-.135-.316a3.671,3.671,0,0,1-.113-.373,3.179,3.179,0,0,1-.073-.378C1830.911,332.281,1830.9,332.168,1830.9,332.072Zm1.452.2v.469a.892.892,0,0,0,.034.2c.023.09.045.186.073.282s.051.192.079.277a.818.818,0,0,0,.074.175.592.592,0,0,0,.051.09c.028.045.062.09.1.141s.068.1.1.141.045.073.051.085.017.034.034.073.04.079.062.124.04.085.062.124a.179.179,0,0,0,.045.073c0,.006.011.017.034.04a.666.666,0,0,0,.068.062.655.655,0,0,1,.062.062l.034.034a.966.966,0,0,1,.141.2.5.5,0,0,0,.17.186c.005.011.034.023.09.034a.812.812,0,0,1,.108.028,2.783,2.783,0,0,0,.3.1,1.463,1.463,0,0,0,.328.034.763.763,0,0,0,.243-.034.517.517,0,0,0,.181-.1,1.965,1.965,0,0,0,.169-.147,1.634,1.634,0,0,1,.2-.169.484.484,0,0,0,.169-.2,1.3,1.3,0,0,1,.13-.226,1.582,1.582,0,0,1,.164-.232q.093-.11.169-.22a.677.677,0,0,0,.045-.079c.005-.023.011-.04.017-.062s.006-.04.006-.068a.281.281,0,0,1,.028-.1q.009,0,.034-.051c.017-.034.04-.073.062-.124a1.444,1.444,0,0,0,.062-.141c.023-.045.04-.085.057-.119a.308.308,0,0,0,.017-.039l.017-.034a.042.042,0,0,0,.006-.023,1.107,1.107,0,0,0,.034-.141c.011-.062.023-.13.034-.192s.023-.119.028-.169.011-.079.011-.09v-.525c0-.277-.011-.559-.04-.842a2.97,2.97,0,0,0-.2-.83c-.091-.2-.187-.39-.283-.571a1.581,1.581,0,0,0-.424-.474l-.1-.051-.186-.1-.186-.1a1.1,1.1,0,0,0-.113-.051c-.006-.006-.023-.017-.045-.034a.365.365,0,0,0-.079-.045c-.029-.017-.057-.028-.085-.045a.274.274,0,0,1-.045-.023c0-.011-.017-.017-.045-.017h-.062a1.281,1.281,0,0,0-.57.13,1.6,1.6,0,0,0-.463.339,3.033,3.033,0,0,0-.373.463,4.707,4.707,0,0,0-.283.52,4.534,4.534,0,0,0-.3.96A5.239,5.239,0,0,0,1832.352,332.27Z" transform="translate(-1727.474 -309.924)" fill="#729eb8" stroke="#3b3b3b" stroke-width="0.5"/>
    <path id="text_y_9" d="M1964.821,330.274c-.181,0-.367.011-.559.028s-.379.028-.565.028h-.407a.068.068,0,0,1-.045-.056c0-.028-.006-.051-.006-.079v-.056a.3.3,0,0,1,.057-.2.413.413,0,0,1,.147-.107,1.01,1.01,0,0,1,.2-.068,1.191,1.191,0,0,0,.2-.073l.079-.051c.04-.023.073-.051.107-.073a1.127,1.127,0,0,1,.1-.073.369.369,0,0,0,.062-.051c.005,0,.011,0,.011-.006s.011-.011.023-.017l.023-.023.09-.938.057-.1v-.785a.42.42,0,0,1-.09-.181,1.263,1.263,0,0,1-.04-.209c-.006-.073-.017-.147-.023-.22a.888.888,0,0,0-.045-.215.093.093,0,0,1-.022-.04.114.114,0,0,1-.023-.034.081.081,0,0,0-.011-.034c-.006-.023-.023-.062-.045-.13a.29.29,0,0,0-.051-.113.841.841,0,0,0-.022-.113c-.011-.068-.023-.119-.028-.141-.028-.045-.051-.085-.068-.113a.83.83,0,0,0-.051-.073.393.393,0,0,1-.034-.051,2.255,2.255,0,0,1-.209-.463c-.045-.153-.09-.316-.135-.486a.091.091,0,0,1-.023-.04.116.116,0,0,1-.023-.034.029.029,0,0,0-.011-.023,3.524,3.524,0,0,1-.164-.328c-.051-.119-.1-.237-.158-.356s-.119-.232-.181-.339a1.139,1.139,0,0,0-.243-.277.75.75,0,0,0-.209-.13c-.068-.028-.136-.056-.209-.085a1.3,1.3,0,0,1-.2-.1.6.6,0,0,1-.175-.181V323a.176.176,0,0,1,.085-.141.282.282,0,0,1,.152-.062h.056a3,3,0,0,0,.339.068,2.5,2.5,0,0,0,.356.028.433.433,0,0,0,.153-.023.618.618,0,0,1,.152-.023h.04a.766.766,0,0,1,.09.006,1.391,1.391,0,0,0,.158.011,1.2,1.2,0,0,1,.152.011.706.706,0,0,0,.085.006h1.056a.6.6,0,0,1,.181.085.239.239,0,0,1,.011.322.452.452,0,0,1-.135.1.746.746,0,0,1-.169.056.6.6,0,0,0-.141.045v.452a.245.245,0,0,1,.124.164c.028.085.051.186.073.288s.034.209.045.311a.7.7,0,0,0,.051.22c.073.136.147.254.209.356a1.913,1.913,0,0,1,.186.339c.023.04.04.056.057.062a.214.214,0,0,0,.062.006.021.021,0,0,0,.017-.006c.006,0,.011,0,.011-.006a.02.02,0,0,1,.011-.006.953.953,0,0,0,.277-.2,1.627,1.627,0,0,0,.192-.249,1.893,1.893,0,0,0,.141-.282c.045-.1.085-.2.136-.311a.654.654,0,0,1,.1-.152l.1-.119a1.042,1.042,0,0,0,.09-.13.514.514,0,0,0,.057-.2v-.4a.994.994,0,0,0-.187-.085,2.389,2.389,0,0,1-.254-.1,1.086,1.086,0,0,1-.226-.136.222.222,0,0,1-.1-.169.179.179,0,0,1,.051-.13.333.333,0,0,1,.13-.079.741.741,0,0,1,.153-.034,1.183,1.183,0,0,1,.136-.006h.056a.455.455,0,0,1,.085.023.554.554,0,0,1,.113.034h.509c.181,0,.356-.011.525-.028s.344-.028.525-.028c.045,0,.1.006.164.011a.735.735,0,0,1,.192.045.6.6,0,0,1,.158.085.158.158,0,0,1,.068.13.289.289,0,0,1-.068.181,1.22,1.22,0,0,1-.141.152.288.288,0,0,0-.1-.017h-.091a.86.86,0,0,0-.39.085c-.113.056-.237.13-.373.215-.011.017-.028.034-.045.062a.279.279,0,0,0-.045.051c-.125.152-.237.311-.345.469s-.209.316-.311.48c-.079.124-.164.243-.249.362s-.164.237-.243.356a3.356,3.356,0,0,0-.209.367,1.6,1.6,0,0,0-.141.4v1.559a1.243,1.243,0,0,1-.023.26,2.168,2.168,0,0,1-.045.22c-.017.073-.028.147-.039.22a1.525,1.525,0,0,0-.017.237v.141a.209.209,0,0,0,.017.113c0,.011.005.034.011.073a.813.813,0,0,0,.028.113l.034.119a.516.516,0,0,0,.034.09.544.544,0,0,0,.152.254.5.5,0,0,0,.215.1,1.125,1.125,0,0,0,.237.023.834.834,0,0,1,.215.023.3.3,0,0,1,.158.079.259.259,0,0,1,.062.2c0,.113-.028.181-.09.209a.484.484,0,0,1-.215.045h-.232a3.949,3.949,0,0,1-.774-.073A4.171,4.171,0,0,0,1964.821,330.274Z" transform="translate(-1851.074 -304.64)" fill="#729eb8" stroke="#3b3b3b" stroke-width="0.5"/>
    <path id="text_a_10" d="M2073.4,332.08a.274.274,0,0,1,.073-.215.593.593,0,0,1,.169-.113c.068-.028.136-.051.209-.073a.574.574,0,0,0,.2-.09.431.431,0,0,0,.091-.062c.04-.028.079-.062.124-.09s.079-.062.114-.085.045-.04.045-.045a.311.311,0,0,0,.062-.073.357.357,0,0,1,.051-.073.133.133,0,0,1,.023-.062.771.771,0,0,0,.045-.1c.017-.034.034-.062.045-.09a.139.139,0,0,0,.023-.062c.045-.056.085-.119.135-.175a1.571,1.571,0,0,0,.119-.175,2.866,2.866,0,0,0,.232-.565,3.308,3.308,0,0,1,.22-.571c.005-.011.017-.04.039-.09s.045-.1.074-.158.056-.107.079-.153a.283.283,0,0,1,.051-.085.183.183,0,0,1,.006-.045c.006-.023.011-.051.017-.079s.011-.057.016-.079a.188.188,0,0,0,.006-.051.161.161,0,0,1,.023-.062.678.678,0,0,1,.045-.09c.017-.034.034-.062.051-.09s.028-.051.034-.062v-.209a.28.28,0,0,1,.023-.062.429.429,0,0,1,.028-.068c0-.011.016-.028.045-.056s.051-.04.062-.04a1.8,1.8,0,0,0,.119-.271c.028-.085.051-.164.079-.243a.818.818,0,0,1,.113-.22.8.8,0,0,1,.22-.209.408.408,0,0,1,.006-.073.5.5,0,0,0,.006-.09.432.432,0,0,0-.062-.22.464.464,0,0,1-.062-.237V326.3a.547.547,0,0,1,.022-.141c.011-.062.023-.13.034-.192s.023-.119.034-.169a.615.615,0,0,0,.017-.1.167.167,0,0,0,.029-.09.13.13,0,0,1,.068-.107c.022-.006.073-.023.153-.045s.13-.04.158-.051a1,1,0,0,0,.152-.153c.051-.056.1-.113.153-.164a.76.76,0,0,1,.169-.13.427.427,0,0,1,.231-.056h.085a1.155,1.155,0,0,1,.181.288,1.725,1.725,0,0,1,.09.305,3.126,3.126,0,0,1,.051.322q.017.161.051.339c.017.006.039.034.068.085a.384.384,0,0,1,.045.1,1.61,1.61,0,0,1,.084.356,2.077,2.077,0,0,0,.063.339c.045.169.09.339.141.5s.107.333.169.5.1.333.153.474.1.316.141.52c.016.056.028.124.045.2s.028.153.045.226.034.153.045.22a.958.958,0,0,0,.062.181c0,.023.022.056.068.107s.073.079.085.09.006.028.011.062a.389.389,0,0,0,.034.1c.011.034.022.068.034.1s.017.051.022.062a.146.146,0,0,0,.023.051.652.652,0,0,0,.045.09.65.65,0,0,1,.045.1c.011.034.023.051.023.056a1.537,1.537,0,0,1,.062.215c.023.079.04.158.062.243a1.393,1.393,0,0,0,.068.237.8.8,0,0,0,.1.2.7.7,0,0,0,.13.13c.051.045.1.09.153.141a1.08,1.08,0,0,1,.124.158.334.334,0,0,1,.051.181v.04a.2.2,0,0,1-.006.062.054.054,0,0,1-.045.04.228.228,0,0,1-.056.017l-.085.017c-.034.006-.062.011-.085.017a.277.277,0,0,1-.062.006H2078.4a1.42,1.42,0,0,1-.147-.017c-.079-.011-.158-.023-.249-.034s-.175-.023-.249-.034-.124-.023-.141-.023h-.119a.365.365,0,0,1,.13-.3,1.6,1.6,0,0,1,.282-.181,1.6,1.6,0,0,0,.288-.192.371.371,0,0,0,.113-.4.245.245,0,0,1-.006-.062.653.653,0,0,0-.017-.079c-.011-.045-.023-.1-.04-.158s-.034-.119-.045-.175-.034-.1-.045-.136c-.028-.085-.051-.169-.073-.249a.682.682,0,0,0-.1-.215.55.55,0,0,0-.164-.158.564.564,0,0,0-.249-.085h-1.1c-.028.006-.068.011-.119.023s-.107.017-.164.023-.107.011-.152.011-.079.006-.1.006a.879.879,0,0,0-.249.1.35.35,0,0,0-.152.2.664.664,0,0,0-.046.158c-.017.068-.034.136-.045.209s-.028.13-.04.181a.691.691,0,0,0-.017.1c0,.011-.006.056-.011.13s-.011.136-.011.181a.183.183,0,0,0,.006.045c0,.028.005.056.005.085s.006.062.006.09.006.051.006.062a.823.823,0,0,0,.175.136c.079.045.158.1.237.147a2.394,2.394,0,0,1,.215.152.3.3,0,0,1,.113.153.173.173,0,0,1-.045.136.463.463,0,0,1-.13.1.763.763,0,0,1-.158.062.8.8,0,0,1-.142.023.463.463,0,0,1-.158-.028.464.464,0,0,0-.158-.028h-.056a.332.332,0,0,0-.073.028.5.5,0,0,1-.073.028h-.452a.366.366,0,0,0-.073.023c-.045.011-.068.023-.073.023h-.113a.465.465,0,0,1-.085-.023c-.05-.011-.079-.023-.084-.023h-.6A.287.287,0,0,1,2073.4,332.08Zm2.615-3.231v.023a.029.029,0,0,1,.011.023c0,.011.011.023.023.034a.094.094,0,0,0,.022.04c.034.028.079.068.142.113a.97.97,0,0,0,.113.085h.395a.081.081,0,0,1,.045.028.162.162,0,0,0,.045.028h.271c.034,0,.079,0,.147-.006a1.171,1.171,0,0,0,.2-.023.433.433,0,0,0,.169-.062.126.126,0,0,0,.074-.113v-.057a.282.282,0,0,1-.023-.045c-.011-.023-.022-.051-.034-.073s-.022-.051-.034-.079a.182.182,0,0,1-.017-.056c-.045-.136-.1-.271-.147-.4s-.1-.254-.147-.373a1.56,1.56,0,0,1-.062-.192.417.417,0,0,0-.085-.175.646.646,0,0,1-.056-.045,1.092,1.092,0,0,1-.085-.079.833.833,0,0,0-.079-.073c-.023-.023-.034-.034-.034-.04a.23.23,0,0,1-.073-.1c-.011-.04-.045-.057-.1-.057h-.022a2.1,2.1,0,0,1-.192.48,3.036,3.036,0,0,0-.215.452.62.62,0,0,1-.022.141c-.011.068-.022.107-.034.113a.346.346,0,0,1-.039.1c-.023.04-.045.085-.068.13a1.353,1.353,0,0,0-.063.136A.442.442,0,0,0,2076.015,328.849Z" transform="translate(-1956.275 -306.622)" fill="#729eb8" stroke="#3b3b3b" stroke-width="0.5"/>
    <path id="text_g_11" d="M2214.117,332.749a.233.233,0,0,1,.022-.113.239.239,0,0,0,.022-.113.263.263,0,0,0-.022-.119.335.335,0,0,1-.022-.136v-.136a.661.661,0,0,1,.017-.13c.011-.056.023-.107.028-.158a.818.818,0,0,1,.028-.136.558.558,0,0,0,.017-.068l.113-.1c0-.023.006-.062.011-.119s.017-.119.028-.181.022-.124.034-.181.017-.1.022-.113.028-.051.051-.1.051-.085.073-.13.051-.085.073-.13.039-.068.051-.09a.721.721,0,0,0,.022-.1.772.772,0,0,0,.017-.1,1.213,1.213,0,0,1,.322-.452l.423-.356c.006-.006.029-.028.068-.073a.4.4,0,0,1,.073-.073,1.886,1.886,0,0,1,.537-.265c.175-.051.362-.1.559-.141.158-.034.311-.062.458-.1a1.979,1.979,0,0,1,.452-.045c.22,0,.424.006.61.011s.4.023.633.045a.17.17,0,0,1,.074.023.193.193,0,0,0,.09.023,2.031,2.031,0,0,1,.214.079c.073.034.147.062.221.1a1.6,1.6,0,0,0,.231.085.861.861,0,0,0,.238.034c.068,0,.136,0,.2-.006a.428.428,0,0,0,.181-.045.168.168,0,0,0,.107-.085c.017-.045.062-.062.13-.062a.081.081,0,0,1,.068.034.294.294,0,0,1,.045.085c.012.034.023.068.034.1a.664.664,0,0,1,.011.073v1.65a.709.709,0,0,1-.006.1.484.484,0,0,1-.022.13.281.281,0,0,1-.062.113.136.136,0,0,1-.113.051.19.19,0,0,1-.113-.062c-.045-.045-.074-.068-.085-.079a3.527,3.527,0,0,1-.232-.458,3.087,3.087,0,0,0-.214-.441l-.04-.039-.034-.034a.143.143,0,0,1-.028-.034c-.022-.017-.051-.045-.091-.079a1.086,1.086,0,0,0-.124-.107,1.015,1.015,0,0,1-.113-.1.546.546,0,0,1-.062-.062,1.122,1.122,0,0,0-.458-.243,4.987,4.987,0,0,1-.491-.164h-.4a3.146,3.146,0,0,0-.48.034,2.12,2.12,0,0,0-.423.113,2.371,2.371,0,0,0-.4.192c-.13.079-.271.164-.412.266a.4.4,0,0,0-.141.209.7.7,0,0,1-.1.243,4.131,4.131,0,0,0-.294.52,4.971,4.971,0,0,0-.237.587,4.879,4.879,0,0,0-.158.61,3.1,3.1,0,0,0-.062.587,2.711,2.711,0,0,0,.108.751,2.585,2.585,0,0,0,.3.695.078.078,0,0,0,.022.017c.017.017.023.028.023.034a.318.318,0,0,0,.045.062.772.772,0,0,0,.062.085c.023.034.04.062.057.085s.028.045.034.056a.179.179,0,0,1,.034.073c.011.04.023.068.023.073s.028.011.056.034.051.045.079.068.051.045.073.062.034.028.034.034c.1.085.2.169.3.249a2.06,2.06,0,0,0,.328.22,1.668,1.668,0,0,0,.355.158,1.291,1.291,0,0,0,.4.062,1.747,1.747,0,0,0,.633-.1,1.964,1.964,0,0,0,.548-.35c.011-.006.034-.023.073-.045a.359.359,0,0,0,.073-.051c0-.006.006-.04.017-.1s.022-.09.039-.1c0-.006.006-.023.011-.045a.105.105,0,0,1,.028-.051v-1.582l-.1-.209c-.068,0-.141-.006-.22-.011a.857.857,0,0,1-.215-.045.427.427,0,0,1-.169-.1.247.247,0,0,1-.068-.181.335.335,0,0,1,.006-.073c0-.028.011-.045.022-.045l.294-.1h1.531a1,1,0,0,1,.118.006l.153.017a1.285,1.285,0,0,0,.141.011.78.78,0,0,1,.079.006.342.342,0,0,0,.062.028.627.627,0,0,1,.091.045c.034.017.062.034.091.051s.051.034.067.045.023.011.029.034a.311.311,0,0,1,.011.051.1.1,0,0,1-.073.1.739.739,0,0,1-.175.034,1.215,1.215,0,0,0-.2.034.2.2,0,0,0-.141.09c-.011.045-.017.085-.022.119a.682.682,0,0,0-.023.175c-.006.028-.011.068-.017.124l-.017.169c-.006.056-.011.113-.017.158a.742.742,0,0,0-.006.1v.842a.328.328,0,0,1,.062.062l.073.09.074.09a.273.273,0,0,1,.045.068v.079a.433.433,0,0,1-.062.249.49.49,0,0,1-.152.153.78.78,0,0,1-.209.09c-.079.023-.153.045-.226.062a.475.475,0,0,0-.056.011.446.446,0,0,0-.079.028c-.028.011-.051.023-.074.034a.356.356,0,0,0-.045.023,4.467,4.467,0,0,1-.5.141,2.025,2.025,0,0,0-.48.169h-1.615c-.011-.017-.045-.028-.1-.04a.605.605,0,0,0-.113-.017,6.713,6.713,0,0,1-.734-.192,3.5,3.5,0,0,1-.7-.3,1.1,1.1,0,0,1-.26-.2,1.983,1.983,0,0,1-.22-.26c-.068-.09-.136-.186-.2-.277s-.119-.181-.181-.266a1.811,1.811,0,0,1-.108-.186c-.028-.057-.051-.107-.073-.158s-.04-.1-.056-.158-.039-.119-.062-.2l-.006-.006a.017.017,0,0,0-.011-.006.018.018,0,0,1-.011-.006.079.079,0,0,1-.022-.017.375.375,0,0,1-.045-.181c-.011-.09-.017-.186-.023-.294s-.011-.209-.011-.305A.787.787,0,0,0,2214.117,332.749Z" transform="translate(-2089.027 -310.301)" fill="#729eb8" stroke="#3b3b3b" stroke-width="0.5"/>
    <path id="text_e_12" d="M2358.514,331.406h-.039a.459.459,0,0,0-.113.023.582.582,0,0,0-.13.034H2356.4c-.011-.017-.022-.034-.039-.057a.635.635,0,0,1-.057-.085v-.045a.176.176,0,0,1,.084-.158.52.52,0,0,1,.2-.079,1.517,1.517,0,0,1,.231-.034.608.608,0,0,0,.181-.034,1.145,1.145,0,0,0,.129-.09.473.473,0,0,0,.108-.107c.005-.017.011-.045.023-.09s.017-.09.022-.141a1.1,1.1,0,0,0,.011-.136c0-.045.006-.073.006-.085a2.138,2.138,0,0,1,.062-.322,1.055,1.055,0,0,0,.045-.322v-.949a.183.183,0,0,1,.006-.045.367.367,0,0,0,.011-.079.312.312,0,0,1,.011-.073.175.175,0,0,0,.006-.045v-.045a.892.892,0,0,0-.017-.136c-.011-.062-.017-.107-.023-.136l-.034-1.887-.006-.141v-1.248a.3.3,0,0,0-.045-.085c-.034-.045-.056-.085-.079-.113a.416.416,0,0,0-.215-.147c-.1-.034-.2-.062-.311-.09a1.629,1.629,0,0,1-.282-.1c-.085-.04-.125-.09-.125-.158a.157.157,0,0,1,.045-.113.307.307,0,0,1,.1-.062.482.482,0,0,1,.13-.023c.045,0,.085-.006.119-.006h.1c.022,0,.062,0,.13.006s.13.006.2.011.13.011.192.011a.6.6,0,0,1,.13.011l.045.056h.056a.178.178,0,0,1,.073-.034.753.753,0,0,1,.074-.023h.949c.022,0,.062-.006.129-.011a.213.213,0,0,0,.113-.028h2.2a.13.13,0,0,0,.073.028c.04.006.062.011.079.011h.548a.366.366,0,0,1,.248.113.931.931,0,0,1,.153.249v.587a.824.824,0,0,0,.028.1c.017.056.028.09.028.1v.073c0,.023-.006.062-.011.119s-.022.119-.034.181a.7.7,0,0,1-.062.164c-.022.045-.051.073-.084.073h-.006a1.186,1.186,0,0,1-.209-.192,1.7,1.7,0,0,1-.141-.209l-.051-.1a.482.482,0,0,0-.062-.1,1.461,1.461,0,0,0-.119-.226,1.181,1.181,0,0,0-.181-.226.979.979,0,0,0-.232-.169.534.534,0,0,0-.254-.068h-1.712c-.028-.028-.051-.045-.068-.045a.278.278,0,0,0-.073-.006h-.056c-.022.011-.056.028-.107.051a.216.216,0,0,0-.09.062c-.006,0-.011.011-.011.034s-.006.051-.006.079-.006.057-.006.079a.072.072,0,0,1-.011.045.091.091,0,0,1-.023.051.2.2,0,0,1-.034.051c0,.051,0,.141-.006.271s-.011.26-.017.4-.011.277-.017.4-.011.215-.017.26v.294c.006.034.011.085.017.152s.012.141.017.215.011.141.017.209.006.107.006.136a.417.417,0,0,0,.1.051c.045.017.1.034.147.051a.781.781,0,0,0,.147.034,1.09,1.09,0,0,0,.113.011h.1c.13-.011.266-.017.4-.023a1.517,1.517,0,0,0,.373-.062.838.838,0,0,0,.3-.181.7.7,0,0,0,.181-.384.792.792,0,0,1,.006-.1c.006-.045.011-.1.017-.152s.011-.1.017-.152a.784.784,0,0,0,.006-.1.373.373,0,0,1,.136-.13.343.343,0,0,1,.175-.068.191.191,0,0,1,.176.09.35.35,0,0,1,.056.2,1.448,1.448,0,0,1-.005.158.618.618,0,0,1-.034.158v1.593a.278.278,0,0,1,.034.13c0,.045.005.085.005.13v.356a.489.489,0,0,1-.045.209c-.028.056-.1.085-.2.085a.229.229,0,0,1-.2-.09.77.77,0,0,1-.113-.237,2.351,2.351,0,0,1-.062-.3,2.436,2.436,0,0,0-.062-.305.76.76,0,0,0-.1-.237.2.2,0,0,0-.181-.09h-.085a.346.346,0,0,1-.085.017l-.147.017-.141.017a.586.586,0,0,1-.073.006h-.554a.519.519,0,0,0-.237.113.692.692,0,0,0-.135.2.9.9,0,0,0-.062.249c-.006.09-.012.181-.012.277v.277a.576.576,0,0,1-.005.1.471.471,0,0,0-.006.085.382.382,0,0,1-.022.1.387.387,0,0,0-.023.1v.667a3.225,3.225,0,0,0,.017.345,1.442,1.442,0,0,0,.085.345.821.821,0,0,0,.373.119c.119.006.243.011.378.023a1.206,1.206,0,0,1,.141.017c.074.011.153.023.238.04s.163.028.237.04a1.359,1.359,0,0,0,.141.017h.435c0,.006.017.023.045.045a.291.291,0,0,0,.068.045h.04a.114.114,0,0,0,.045-.023l.034-.017a.043.043,0,0,1,.023-.006c.011,0,.028.017.045.045a.474.474,0,0,1,.045.062h.056a.252.252,0,0,1,.017-.062c.011-.028.022-.045.039-.045h.04a2.8,2.8,0,0,0,.8-.695c.215-.277.43-.559.638-.853l.023-.006c.006,0,.011,0,.011.006a.019.019,0,0,0,.011.006h.006c.006,0,.023.011.045.04a.588.588,0,0,1,.045.056v.35a1.517,1.517,0,0,1-.017.175c-.011.085-.022.175-.028.271s-.017.186-.028.271a1.514,1.514,0,0,0-.017.175.326.326,0,0,0-.062.136c-.006.045-.017.1-.023.141a.532.532,0,0,1-.034.13.211.211,0,0,1-.085.107c-.034,0-.09,0-.181.006s-.181.006-.276.011l-.272.017c-.084.006-.141.006-.175.006a.242.242,0,0,0-.051.017c-.028.011-.062.023-.1.04s-.068.028-.1.04a.228.228,0,0,1-.051.017.777.777,0,0,1-.1-.028c-.057-.017-.091-.028-.1-.028h-.034a2.769,2.769,0,0,0-.373.028,3.017,3.017,0,0,1-.4.028,5.485,5.485,0,0,1-.807-.056A3.615,3.615,0,0,0,2358.514,331.406Z" transform="translate(-2223.195 -305.773)" fill="#729eb8" stroke="#3b3b3b" stroke-width="0.5"/>
    <path id="text_s_13" d="M2489.6,334.951v-.017a.892.892,0,0,1,.006-.113c.006-.045.011-.1.017-.141s.011-.09.017-.13a.454.454,0,0,0,.006-.068c.006-.04.011-.085.022-.141a.949.949,0,0,1,.045-.169.381.381,0,0,1,.079-.141.158.158,0,0,1,.124-.062.251.251,0,0,1,.073.006.156.156,0,0,1,.063.062.874.874,0,0,1,.045.186.657.657,0,0,0,.051.2.094.094,0,0,0,.022.051.466.466,0,0,1,.029.062c.056.113.119.237.181.379a4.009,4.009,0,0,0,.209.412,2.448,2.448,0,0,0,.26.362.765.765,0,0,0,.345.226c.005.011.034.017.084.017a1.429,1.429,0,0,0,.153-.006.965.965,0,0,1,.1-.006.612.612,0,0,1,.09.028.426.426,0,0,0,.107.028h.1a2.5,2.5,0,0,0,.452-.136,1.127,1.127,0,0,0,.345-.22.886.886,0,0,0,.22-.328,1.262,1.262,0,0,0,.079-.463v-.237a.652.652,0,0,1-.045-.124c-.022-.062-.045-.124-.073-.2s-.051-.13-.074-.192a.529.529,0,0,0-.062-.119.839.839,0,0,0-.175-.22,1.214,1.214,0,0,0-.221-.158c-.079-.045-.158-.085-.243-.124s-.164-.073-.243-.1a.086.086,0,0,1-.062-.023.09.09,0,0,1-.04-.023.692.692,0,0,0-.073-.056.229.229,0,0,0-.073-.039.633.633,0,0,1-.136-.023.294.294,0,0,1-.119-.034,1.007,1.007,0,0,0-.1-.045c-.045-.023-.1-.045-.147-.073s-.1-.051-.146-.073a.681.681,0,0,1-.1-.062c-.034-.023-.08-.051-.136-.085s-.119-.073-.175-.113-.107-.068-.152-.1a.31.31,0,0,0-.073-.04.771.771,0,0,1-.215-.26,2.216,2.216,0,0,1-.141-.288c-.011-.034-.022-.068-.04-.113a1.053,1.053,0,0,1-.045-.13.68.68,0,0,0-.045-.107c-.012-.028-.023-.045-.023-.051v-.881a.228.228,0,0,1,.023-.073.307.307,0,0,1,.034-.085,1.521,1.521,0,0,0,.085-.169c.034-.073.068-.147.107-.22s.068-.141.1-.2a.5.5,0,0,1,.063-.1.582.582,0,0,1,.13-.153.908.908,0,0,1,.158-.1,1.552,1.552,0,0,0,.158-.1.488.488,0,0,0,.13-.13c.022-.006.056-.011.113-.023s.107-.023.169-.034l.164-.034a.563.563,0,0,1,.107-.017.331.331,0,0,0,.073-.028.332.332,0,0,1,.074-.028h.254a.262.262,0,0,1,.04-.017l.034-.017a.073.073,0,0,1,.034-.006h.079a1.757,1.757,0,0,1,.423.045,2.631,2.631,0,0,1,.379.152c.011,0,.034.006.073.011a.129.129,0,0,1,.073.028.323.323,0,0,1,.085.062c.028.028.051.056.079.085a.452.452,0,0,0,.079.073.143.143,0,0,0,.1.034.159.159,0,0,0,.1-.034.559.559,0,0,0,.09-.073.511.511,0,0,1,.084-.073.165.165,0,0,1,.108-.034.248.248,0,0,1,.254.2v.548c-.011.175-.023.356-.034.542a1.733,1.733,0,0,1-.119.537c-.012.039-.023.056-.04.062a.213.213,0,0,1-.062.006.289.289,0,0,1-.175-.113,2.082,2.082,0,0,1-.2-.271,3.544,3.544,0,0,1-.17-.316,1.028,1.028,0,0,1-.084-.254v-.085a.5.5,0,0,0-.1-.237.549.549,0,0,0-.169-.152,1.235,1.235,0,0,0-.209-.113c-.079-.034-.152-.068-.237-.1a.4.4,0,0,1-.09-.045.4.4,0,0,0-.107-.056.172.172,0,0,1-.057.023l-.051.017a.141.141,0,0,1-.045.006c-.147.073-.288.141-.412.2a1.135,1.135,0,0,0-.328.215.986.986,0,0,0-.22.316,1.272,1.272,0,0,0-.079.48.591.591,0,0,0,.084.328.746.746,0,0,0,.22.22,2.1,2.1,0,0,0,.294.169c.107.051.209.1.305.153.107.068.209.136.311.2a1.235,1.235,0,0,0,.316.147c.056.017.124.034.2.056s.147.045.22.073.146.056.214.085a1.108,1.108,0,0,1,.169.1,2.187,2.187,0,0,1,.667.757,2.054,2.054,0,0,1,.237.977,1.917,1.917,0,0,1-.1.61,3.616,3.616,0,0,1-.26.587,2.274,2.274,0,0,1-1.011.785,3.454,3.454,0,0,1-1.271.237h-.079a.332.332,0,0,1-.073-.028.576.576,0,0,0-.068-.028c-.028-.006-.068-.017-.13-.034s-.119-.034-.175-.045-.113-.028-.164-.045a.93.93,0,0,0-.1-.023c-.125-.04-.243-.073-.356-.107a.872.872,0,0,1-.328-.186.369.369,0,0,0-.062-.045,1.156,1.156,0,0,1-.1-.073.6.6,0,0,1-.084-.085.139.139,0,0,1-.045-.09.616.616,0,0,0-.006-.079c-.005-.045-.011-.1-.017-.169s-.011-.13-.017-.2-.006-.119-.006-.164v-.011Z" transform="translate(-2348.964 -310.679)" fill="#729eb8" stroke="#3b3b3b" stroke-width="0.5"/>
  </g>
</svg>
