<svg xmlns="http://www.w3.org/2000/svg" width="302.112" height="41.852" viewBox="0 0 302.112 41.852">
  <g id="Group_206" data-name="Group 206" transform="translate(-646.021 -101.551)">
    <path id="text_s_1" d="M1006.133,287.475c-.461-.115-.98-.231-1.557-.384s-1.077-.288-1.538-.442c-.038,0-.115-.058-.25-.154-.135-.115-.211-.173-.211-.211a12.036,12.036,0,0,0-1.211-.519,5.782,5.782,0,0,1-.98-.442,1.672,1.672,0,0,1-.654-.711,3.081,3.081,0,0,1-.231-1.346v-.135a1.648,1.648,0,0,1,.154-.346.973.973,0,0,0,.154-.346,4.253,4.253,0,0,0,.115-1.23A9.737,9.737,0,0,1,1000,279.9a1.983,1.983,0,0,1,.1-.231,1.121,1.121,0,0,0,.1-.25.62.62,0,0,1,.019-.154,1.478,1.478,0,0,1,.038-.288c.019-.115.038-.212.058-.308a1.974,1.974,0,0,1,.058-.231,1.633,1.633,0,0,1,.019-.25,3.466,3.466,0,0,1,.038-.423c.019-.154.038-.288.058-.423a1.623,1.623,0,0,0,.019-.25,1.12,1.12,0,0,1,.019-.192,2.019,2.019,0,0,1,.077-.327c.019-.115.058-.211.077-.308a.843.843,0,0,0,.019-.173,1.622,1.622,0,0,1,.019-.25c.019-.135.038-.269.058-.423s.038-.288.058-.442a1.846,1.846,0,0,1,.058-.288,2.033,2.033,0,0,1,.038-.25,1.226,1.226,0,0,1,.115-.346,1.021,1.021,0,0,1,.154-.288.251.251,0,0,1,.231-.135c.154,0,.269.135.385.4a5.2,5.2,0,0,1,.288.961c.077.365.154.73.211,1.1s.1.615.135.788c.019.115.038.308.077.6.019.288.058.6.077.923s.058.634.077.9c.019.288.038.481.038.577a1.066,1.066,0,0,1,.115.154,1.045,1.045,0,0,1,.077.154,4.883,4.883,0,0,1,.327.865,5.064,5.064,0,0,0,.346.865,2.249,2.249,0,0,0,.115.25,3.329,3.329,0,0,0,.211.346c.077.115.135.231.211.346a2.037,2.037,0,0,0,.154.25,2.1,2.1,0,0,1,.192.154c.1.1.135.154.135.192a.589.589,0,0,1,.1.173c.038.1.1.211.154.327s.115.231.154.327a.486.486,0,0,1,.077.173,2.237,2.237,0,0,0,.654.615,6.248,6.248,0,0,0,.865.481c.308.135.615.269.923.384s.6.231.846.346c.038.038.115.115.231.212.115.115.192.154.231.154h1a2.928,2.928,0,0,1,.519.077c.288.038.461.077.519.077h.75a5.455,5.455,0,0,0,1.769-.25c.519-.154,1.057-.365,1.634-.6q.2-.058.519-.115a.932.932,0,0,0,.519-.231,1.222,1.222,0,0,0,.25-.211c.135-.115.269-.25.4-.385.154-.154.288-.288.423-.442a1.917,1.917,0,0,1,.288-.288,2.819,2.819,0,0,0,.288-.327c.135-.154.25-.288.385-.442s.231-.269.346-.384c.1-.115.154-.192.173-.211a.8.8,0,0,0,.077-.173,2.949,2.949,0,0,1,.1-.327,2.978,2.978,0,0,0,.1-.327.36.36,0,0,1,.077-.173,5.625,5.625,0,0,1,.25-.557,4.059,4.059,0,0,0,.212-.4,3.01,3.01,0,0,0,.154-.442,2.932,2.932,0,0,0,.058-.654c0-.577-.019-1.134-.038-1.673s-.058-1.1-.1-1.673a1.884,1.884,0,0,0-.442-.923c-.211-.25-.423-.5-.615-.75a1.122,1.122,0,0,0-.212-.269c-.115-.154-.25-.308-.384-.481s-.269-.346-.384-.5-.192-.25-.212-.288a1.941,1.941,0,0,0-.346-.346,2.1,2.1,0,0,0-.288-.154c-.1-.038-.212-.077-.327-.115a2.851,2.851,0,0,1-.423-.211,3.47,3.47,0,0,1-.519-.538,1.576,1.576,0,0,0-.615-.461.744.744,0,0,0-.211-.058c-.1-.019-.211-.038-.327-.058s-.231-.038-.327-.058a.844.844,0,0,0-.173-.019,3.582,3.582,0,0,0-.442-.154c-.211-.077-.346-.135-.385-.154a1.487,1.487,0,0,0-.307-.211c-.173-.115-.346-.211-.538-.346-.192-.115-.365-.231-.538-.327a2.689,2.689,0,0,0-.346-.173,7.231,7.231,0,0,0-1.576-.442,8.18,8.18,0,0,1-1.576-.4,7,7,0,0,1-1.346-.6c-.423-.25-.827-.519-1.211-.788-.442-.25-.846-.519-1.269-.807a12.19,12.19,0,0,0-1.288-.807.139.139,0,0,0-.077-.115c-.038-.038-.077-.077-.115-.077a22.882,22.882,0,0,1-2.057-3.883,11.423,11.423,0,0,1-.807-4.345v-.519a4.5,4.5,0,0,1,.019-.519,2.215,2.215,0,0,1,.154-.557.585.585,0,0,0,.1-.173c.038-.1.1-.211.154-.327s.115-.231.154-.327a.487.487,0,0,0,.077-.173.848.848,0,0,1,.019-.173c.019-.1.038-.212.058-.327s.039-.231.058-.327a.421.421,0,0,1,.058-.173c.038-.1.077-.211.135-.346.058-.154.115-.288.192-.461.077-.154.154-.327.25-.481a2.215,2.215,0,0,1,.288-.385.893.893,0,0,1,.212-.231l.384-.384.365-.365a1.263,1.263,0,0,0,.192-.212q.058,0,.115-.115a.546.546,0,0,0,.077-.231,2.759,2.759,0,0,1,.865-1.173,11.781,11.781,0,0,1,1.307-.884.175.175,0,0,0,.135.058.051.051,0,0,0,.058-.058c.019,0,.058-.019.115-.077.058-.038.135-.1.211-.154s.192-.135.346-.231h.519a1.614,1.614,0,0,0,.346-.077q.288-.086.634-.173c.231-.058.442-.115.654-.154s.346-.077.385-.077h1.326a2.025,2.025,0,0,1,.385-.058q.288-.029.634-.058c.231-.019.442-.038.654-.058s.346-.019.385-.019h.154a.28.28,0,0,1,.154.1.537.537,0,0,0,.154.1h1.057a2.536,2.536,0,0,1,.846.25c.327.154.673.327,1.019.519s.673.384,1,.577.6.346.807.461a.6.6,0,0,0,.25.115c.134.038.211.077.231.077a2.553,2.553,0,0,1,.461.365c.154.154.288.308.442.442a3.015,3.015,0,0,0,.481.385,1,1,0,0,0,.577.154.623.623,0,0,0,.558-.25,1.605,1.605,0,0,0,.269-.577c.058-.212.115-.442.154-.673a2.849,2.849,0,0,1,.154-.558.334.334,0,0,1,.115-.211,3.37,3.37,0,0,1,.25-.288c.1-.115.173-.211.25-.288a2.1,2.1,0,0,0,.154-.192.175.175,0,0,1,.135-.058h.058a.53.53,0,0,1,.519.384,1.964,1.964,0,0,1,.154.673v.288c0,.058-.019.154-.038.288s-.058.288-.1.442-.077.288-.115.442a.954.954,0,0,1-.077.231,47.519,47.519,0,0,0-.4,6.229c0,.327,0,.654.019.961s.019.634.019.961c-.038.115-.077.231-.115.384a1.817,1.817,0,0,1-.192.442,1.1,1.1,0,0,1-.288.365.558.558,0,0,1-.346.154.774.774,0,0,1-.5-.135.938.938,0,0,1-.269-.346,2.982,2.982,0,0,1-.154-.442,2.98,2.98,0,0,0-.135-.442c-.192-.577-.4-1.211-.6-1.922s-.4-1.326-.6-1.865a4.149,4.149,0,0,0-.442-.75c-.212-.288-.442-.577-.711-.884-.269-.288-.519-.577-.769-.846s-.461-.5-.615-.692a7.754,7.754,0,0,1-.519-.827,1.672,1.672,0,0,0-.615-.692c-.192-.115-.442-.211-.711-.346-.269-.115-.557-.231-.846-.346a8.538,8.538,0,0,0-.846-.269,2.852,2.852,0,0,0-.75-.115,3.6,3.6,0,0,0-1.327.25,11,11,0,0,1-1.346.442.619.619,0,0,0-.154.019q-.115.029-.288.058t-.288.058a.944.944,0,0,1-.211.019h-.673a1.156,1.156,0,0,1-.135.115c-.077.058-.154.115-.25.192a2.774,2.774,0,0,1-.288.211.89.89,0,0,0-.192.192,13.807,13.807,0,0,0-1.192,1.211,5.036,5.036,0,0,0-.711,1.173,5.512,5.512,0,0,0-.365,1.346,11.035,11.035,0,0,0-.115,1.711c0,.154,0,.346.019.6s.038.519.077.807a4.172,4.172,0,0,0,.154.769,1.307,1.307,0,0,0,.25.519l2.23,2.134c.058.038.135.077.212.135a2.1,2.1,0,0,0,.288.154c.115.058.211.1.288.135.1.038.154.058.192.077.019.019.077.058.173.135a1.9,1.9,0,0,0,.327.211c.115.077.231.135.327.211a1.224,1.224,0,0,1,.173.115,5.056,5.056,0,0,0,1.173.557,8.2,8.2,0,0,1,1.192.5c.058.019.154.058.307.115s.307.135.481.211c.154.077.327.135.48.211a1.466,1.466,0,0,1,.308.154.776.776,0,0,1,.212.115c.135.077.269.154.423.231a4.611,4.611,0,0,0,.442.211q.2.087.288.115a1.119,1.119,0,0,1,.192.019,2.12,2.12,0,0,1,.346.038,2.044,2.044,0,0,1,.365.077.775.775,0,0,1,.231.077.616.616,0,0,1,.25.135,1.346,1.346,0,0,0,.231.154c.077.038.192.1.365.173s.346.173.519.25c.173.1.346.173.519.25.154.077.269.135.327.173A9.837,9.837,0,0,1,1019.9,268a12.311,12.311,0,0,1,2.038,2.518,13.247,13.247,0,0,1,1.346,2.961,10.282,10.282,0,0,1,.48,3.1v.288c-.019.173-.038.423-.077.75-.019.308-.058.634-.1.961s-.077.615-.115.865a3.39,3.39,0,0,1-.077.442,4.574,4.574,0,0,1-.327,1.1,9.246,9.246,0,0,1-.519.961c-.211.308-.423.615-.654.923s-.461.615-.692.942a.3.3,0,0,1-.058.115,2.1,2.1,0,0,0-.115.212,2.1,2.1,0,0,1-.115.211,1.488,1.488,0,0,0-.077.135,1.218,1.218,0,0,1-.615.538,4.678,4.678,0,0,0-.711.4,2.1,2.1,0,0,1-.154.192c-.077.1-.173.192-.25.288-.1.1-.173.192-.25.269a.4.4,0,0,1-.154.115,6.634,6.634,0,0,1-.942.519,7.775,7.775,0,0,1-.942.327c-.327.1-.654.173-.98.25s-.692.173-1.077.288c-.365.115-.673.211-.961.327a2.708,2.708,0,0,1-1.019.154h-.538c-.231-.019-.654-.058-1.25-.115s-1.23-.135-1.884-.211-1.288-.135-1.865-.211C1006.786,287.571,1006.363,287.514,1006.133,287.475Z" transform="translate(-353.229 -145.899)" fill="#729eb8" stroke="#3b3b3b" stroke-width="0.5"/>
    <path id="text_l_2" d="M1164.123,352.611l-5.422.077h-.481c-.135,0-.346,0-.673.019-.327,0-.673.019-1.038.019s-.711,0-1.038.019c-.327,0-.557.019-.673.019a1.309,1.309,0,0,1-.231-.019,2.888,2.888,0,0,1-.385-.038c-.154-.019-.288-.038-.423-.058a1.9,1.9,0,0,0-.288-.019,1.915,1.915,0,0,1-.462-.269.543.543,0,0,1-.211-.442c0-.327.115-.538.346-.615a4.09,4.09,0,0,1,.807-.211,7.5,7.5,0,0,0,.884-.231.993.993,0,0,0,.634-.634.876.876,0,0,0,.019-.269,3.414,3.414,0,0,0-.019-.442c0-.154-.019-.25-.019-.288.019-.231.058-.654.1-1.23.038-.6.1-1.211.154-1.884s.1-1.307.154-1.9c.039-.6.077-1.019.1-1.269a.729.729,0,0,0,.1-.154l.115-.288a2.722,2.722,0,0,0,.1-.308,1.574,1.574,0,0,1,.077-.231V341.9a1.77,1.77,0,0,0-.192-.846,2.222,2.222,0,0,1-.192-1.038,39.968,39.968,0,0,1,.192-4.037,39.547,39.547,0,0,0,.192-4,2.478,2.478,0,0,0-.25-1.25,1.527,1.527,0,0,0-.673-.634,2.672,2.672,0,0,0-.846-.25c-.288-.019-.577-.058-.846-.1a1.632,1.632,0,0,1-.673-.211.536.536,0,0,1-.25-.519,1.094,1.094,0,0,1,.211-.634.652.652,0,0,1,.558-.288h.4c.058,0,.211,0,.442.019.25.019.519.038.808.077.288.019.557.058.807.077s.423.019.481.019h8.094a2.291,2.291,0,0,1,.577.346.661.661,0,0,1,.288.519,1.167,1.167,0,0,1-.038.288,1.5,1.5,0,0,1-.173.384c-.058.019-.154.038-.269.077a2.82,2.82,0,0,0-.385.1,3.743,3.743,0,0,1-.385.1,1.189,1.189,0,0,0-.269.077,2.935,2.935,0,0,0-.346.019c-.173,0-.385.019-.577.038q-.317.029-.577.058a2.039,2.039,0,0,0-.346.058.555.555,0,0,0-.365.25,1.559,1.559,0,0,0-.173.481,5.1,5.1,0,0,0-.077.538c0,.173-.019.327-.019.442-.077.577-.135,1.115-.173,1.6s-.077.98-.077,1.48c0,.231,0,.461.019.692s.019.481.019.769a.588.588,0,0,0-.173.25,1.166,1.166,0,0,0-.038.288.693.693,0,0,0,.038.211.765.765,0,0,0,.173.269v5.652a2.325,2.325,0,0,0-.115.442,4.215,4.215,0,0,0-.077.423c0,.1,0,.288-.019.577s-.038.615-.058.942-.038.654-.058.942-.019.461-.019.538a.965.965,0,0,0-.058.231,2.374,2.374,0,0,0-.038.385c0,.135-.019.269-.019.384s-.019.192-.019.231v.135c0,.077.019.192.038.385.019.173.058.365.1.577.039.192.077.384.115.557a1.9,1.9,0,0,1,.058.365.68.68,0,0,0,.442.385c.192.058.385.1.577.135.077.019.173.038.327.077.154.019.288.058.423.077a2.886,2.886,0,0,0,.385.038c.115,0,.211.019.25.019h4a1.639,1.639,0,0,0,.365.115c.173.038.365.1.557.154s.385.1.558.135.288.058.365.077h.385c.038,0,.135-.1.288-.269s.269-.308.346-.4c.115-.115.25-.269.442-.461s.365-.4.558-.6c.173-.192.346-.365.481-.519a1.645,1.645,0,0,0,.25-.288,1.018,1.018,0,0,0,.154-.327c.077-.173.135-.288.154-.327l.25-.25a2.05,2.05,0,0,0,.25-.288.427.427,0,0,0,.154-.192,2.27,2.27,0,0,0,.211-.365c.077-.135.135-.269.192-.385l.115-.231a2.453,2.453,0,0,1,.212-.288c.1-.154.211-.288.308-.461a3.03,3.03,0,0,0,.288-.461,2.338,2.338,0,0,1,.192-.288,1.14,1.14,0,0,1,.154-.154c.058-.077.135-.154.211-.25a2.846,2.846,0,0,1,.212-.25.783.783,0,0,0,.115-.211,1,1,0,0,0,.288-.25c.115-.135.192-.211.212-.231h.115c.192,0,.327.135.385.384a3.6,3.6,0,0,1,.077.769v1.192a1.3,1.3,0,0,0-.115.4c-.038.211-.1.442-.154.711-.058.25-.115.481-.173.711s-.1.346-.115.4a2.193,2.193,0,0,1-.019.288,4.38,4.38,0,0,1-.039.481,4.409,4.409,0,0,0-.038.481.471.471,0,0,1-.038.25.523.523,0,0,1-.058.154c-.038.077-.077.173-.115.269l-.115.288c-.039.1-.058.154-.058.154v.807a1.38,1.38,0,0,1-.615,1.173,2.268,2.268,0,0,1-1.307.365h-.6c-.058,0-.192,0-.442-.019-.231-.019-.481-.038-.75-.077-.269-.019-.519-.058-.769-.077s-.384-.019-.442-.019h-3.364c-.1,0-.25,0-.461-.019s-.442-.038-.711-.058c-.25-.019-.5-.038-.711-.058-.231-.019-.384-.019-.442-.019a1.264,1.264,0,0,1-.25-.058A1.738,1.738,0,0,1,1164.123,352.611Z" transform="translate(-477.059 -210.843)" fill="#729eb8" stroke="#3b3b3b" stroke-width="0.5"/>
    <path id="text_a_3" d="M1281.1,349.334a.937.937,0,0,1,.25-.731,2.324,2.324,0,0,1,.577-.384c.231-.1.461-.173.711-.25a1.959,1.959,0,0,0,.673-.308,1.467,1.467,0,0,0,.308-.211c.135-.1.269-.211.423-.308.154-.115.269-.211.385-.288s.154-.135.154-.154a1.044,1.044,0,0,0,.212-.25,1.25,1.25,0,0,1,.173-.25.468.468,0,0,1,.077-.211,2.5,2.5,0,0,0,.154-.327c.058-.115.115-.211.154-.308a.467.467,0,0,0,.077-.211c.154-.192.288-.4.461-.6a5.413,5.413,0,0,0,.4-.6,9.86,9.86,0,0,0,.788-1.922,11.273,11.273,0,0,1,.75-1.942c.019-.038.058-.135.135-.308s.154-.346.25-.538.192-.365.269-.519a.953.953,0,0,1,.173-.288.62.62,0,0,1,.019-.154c.019-.077.038-.173.058-.269s.038-.192.058-.269a.664.664,0,0,0,.019-.173.554.554,0,0,1,.077-.211,2.289,2.289,0,0,1,.154-.308c.058-.115.115-.211.173-.308s.1-.173.115-.211v-.711a.941.941,0,0,1,.077-.211,1.677,1.677,0,0,1,.1-.231c0-.038.058-.1.154-.192.115-.1.173-.135.211-.135a6.128,6.128,0,0,0,.4-.923c.1-.288.173-.558.269-.827a2.766,2.766,0,0,1,.385-.75,2.682,2.682,0,0,1,.75-.711,1.375,1.375,0,0,1,.019-.25,1.754,1.754,0,0,0,.019-.308,1.471,1.471,0,0,0-.212-.75,1.58,1.58,0,0,1-.211-.807v-.058a1.849,1.849,0,0,1,.077-.481c.038-.211.077-.442.115-.654s.077-.4.115-.577a2.036,2.036,0,0,0,.058-.346.556.556,0,0,0,.1-.308.446.446,0,0,1,.231-.365c.077-.019.25-.077.519-.154s.442-.135.538-.173a3.3,3.3,0,0,0,.519-.519c.173-.192.346-.384.519-.557a2.558,2.558,0,0,1,.577-.442,1.454,1.454,0,0,1,.788-.192h.288a3.929,3.929,0,0,1,.615.98,5.907,5.907,0,0,1,.308,1.038,10.878,10.878,0,0,1,.173,1.1q.057.548.173,1.153.086.029.231.288a1.3,1.3,0,0,1,.154.327,5.551,5.551,0,0,1,.288,1.211,7.19,7.19,0,0,0,.211,1.153c.154.577.308,1.153.481,1.711s.365,1.134.577,1.711q.259.894.519,1.615c.154.481.327,1.077.481,1.769.058.192.1.423.154.673.038.25.1.519.154.769.058.269.115.519.154.75a3.243,3.243,0,0,0,.212.615c0,.077.077.192.23.365s.25.269.288.308c0,.038.019.1.039.211a1.334,1.334,0,0,0,.115.327c.038.115.077.231.115.327s.058.173.077.212a.486.486,0,0,0,.077.173,2.288,2.288,0,0,0,.154.308,2.507,2.507,0,0,1,.154.327c.038.115.077.173.077.192a5.572,5.572,0,0,1,.211.731c.077.269.135.538.212.827a4.951,4.951,0,0,0,.231.807,2.757,2.757,0,0,0,.346.673,2.394,2.394,0,0,0,.442.442c.173.154.346.308.519.481a3.71,3.71,0,0,1,.423.538,1.144,1.144,0,0,1,.173.615v.135a.723.723,0,0,1-.019.211.187.187,0,0,1-.154.135.778.778,0,0,1-.192.058l-.288.058q-.173.029-.288.058a.944.944,0,0,1-.212.019h-5.229a4.783,4.783,0,0,1-.5-.058c-.269-.038-.538-.077-.846-.115s-.6-.077-.846-.115c-.269-.038-.423-.077-.481-.077h-.4a1.242,1.242,0,0,1,.442-1.019,5.469,5.469,0,0,1,.961-.615,5.437,5.437,0,0,0,.98-.654,1.318,1.318,0,0,0,.442-1.1,1.336,1.336,0,0,0-.058-.269.865.865,0,0,1-.019-.211,2.279,2.279,0,0,0-.058-.269c-.038-.154-.077-.346-.135-.538s-.115-.4-.154-.6c-.058-.192-.115-.346-.154-.461-.1-.288-.173-.577-.25-.846a2.332,2.332,0,0,0-.346-.731,1.863,1.863,0,0,0-.557-.538,1.922,1.922,0,0,0-.846-.288h-3.729c-.1.019-.231.038-.4.077-.173.019-.365.058-.557.077s-.365.038-.519.038-.269.019-.327.019a3.01,3.01,0,0,0-.846.346,1.2,1.2,0,0,0-.519.692,2.3,2.3,0,0,0-.154.538c-.058.231-.115.461-.154.711-.058.231-.1.442-.135.615a2.291,2.291,0,0,0-.058.327c0,.038-.019.192-.038.442-.019.269-.038.461-.038.615a.62.62,0,0,0,.019.154c0,.1.019.192.019.288,0,.115.019.211.019.308s.019.173.019.211a2.79,2.79,0,0,0,.6.461c.269.154.538.327.807.5a8.011,8.011,0,0,1,.731.519,1.014,1.014,0,0,1,.385.519.59.59,0,0,1-.154.461,1.556,1.556,0,0,1-.442.327,2.608,2.608,0,0,1-.538.211,2.714,2.714,0,0,1-.481.077,1.577,1.577,0,0,1-.538-.1,1.579,1.579,0,0,0-.538-.1h-.192a1.126,1.126,0,0,0-.25.1,1.67,1.67,0,0,1-.25.1h-1.538a1.213,1.213,0,0,0-.25.077c-.154.038-.231.077-.25.077h-.384a1.536,1.536,0,0,1-.288-.077c-.173-.038-.269-.077-.288-.077h-2.057A.975.975,0,0,1,1281.1,349.334Zm8.92-11v.077a.1.1,0,0,1,.038.077c0,.038.039.077.077.115a.312.312,0,0,0,.077.135c.115.1.269.231.48.384a3.49,3.49,0,0,0,.385.288h1.346a.28.28,0,0,1,.154.1.537.537,0,0,0,.154.1h.923c.115,0,.269,0,.5-.019a4.01,4.01,0,0,0,.673-.077,1.488,1.488,0,0,0,.577-.211.428.428,0,0,0,.25-.384v-.192a1.077,1.077,0,0,1-.077-.154c-.038-.077-.077-.173-.115-.25-.038-.1-.077-.173-.115-.269a.626.626,0,0,1-.058-.192c-.154-.461-.327-.923-.5-1.346-.173-.442-.346-.865-.5-1.269a5.149,5.149,0,0,1-.211-.654,1.423,1.423,0,0,0-.288-.6,2.082,2.082,0,0,1-.192-.154,3.729,3.729,0,0,1-.288-.269,2.933,2.933,0,0,0-.269-.25c-.077-.077-.115-.115-.115-.135a.788.788,0,0,1-.25-.346c-.038-.135-.154-.192-.346-.192h-.077a7.082,7.082,0,0,1-.654,1.634,10.187,10.187,0,0,0-.731,1.538,2.111,2.111,0,0,1-.077.481c-.038.231-.077.365-.115.384a1.145,1.145,0,0,1-.135.346c-.077.135-.154.288-.231.442a4.934,4.934,0,0,0-.211.461A1,1,0,0,0,1290.02,338.338Z" transform="translate(-580.693 -208.258)" fill="#729eb8" stroke="#3b3b3b" stroke-width="0.5"/>
    <path id="text_v_4" d="M1409.413,338.761a.724.724,0,0,1-.1-.154.35.35,0,0,0-.115-.154,1.117,1.117,0,0,0-.154-.192c-.058-.058-.115-.1-.154-.135a6.66,6.66,0,0,1-.442-1.365,12.758,12.758,0,0,0-.365-1.365c-.077-.192-.192-.538-.346-1.019s-.327-.98-.519-1.538c-.173-.538-.346-1.057-.519-1.538-.154-.481-.288-.807-.346-1.019a5.747,5.747,0,0,0-.807-1.115,8.877,8.877,0,0,0-1.057-.942c-.058-.058-.1-.115-.135-.154-.115-.115-.173-.154-.192-.154a3.282,3.282,0,0,0-.481-.019c-.211,0-.423,0-.615-.019a1.188,1.188,0,0,1-.538-.173.5.5,0,0,1-.231-.461v-.135a.922.922,0,0,1,.481-.288,2.144,2.144,0,0,1,.519-.058,2.984,2.984,0,0,1,.423.019c.135,0,.25.019.365.019a2.4,2.4,0,0,0,.4-.038.921.921,0,0,0,.4-.173h2.519l.346.211h6.229a.308.308,0,0,1,.307.154.9.9,0,0,1,.077.308.756.756,0,0,1-.154.481c-.115.115-.231.25-.385.384a1.473,1.473,0,0,1-.673.327q-.4.087-.75.173a1.429,1.429,0,0,0-.634.327.978.978,0,0,0-.269.769v.077a15.837,15.837,0,0,0,.884,3c.4.98.769,1.942,1.115,2.922a5.263,5.263,0,0,1,.25,1.019,7.277,7.277,0,0,0,.231,1.019,6.037,6.037,0,0,0,.365,1.038c.154.327.308.654.442.961a.425.425,0,0,1,.135.25,1.227,1.227,0,0,1,.058.288,17.048,17.048,0,0,0,.692,1.884c.269.615.538,1.25.846,1.846l.135.135h.192a.1.1,0,0,0,.1-.077.127.127,0,0,1,.1-.077q.26-.577.577-1.269c.192-.461.385-.942.577-1.423.173-.481.346-.961.5-1.442s.288-.923.384-1.307a2.82,2.82,0,0,0,.077-.327c.019-.173.058-.365.1-.577s.077-.4.1-.6a1.557,1.557,0,0,1,.077-.365.581.581,0,0,1,.077-.25,1.567,1.567,0,0,0,.077-.211,14.807,14.807,0,0,0,.884-2.1c.231-.692.442-1.423.654-2.172.154-.461.307-.923.481-1.346a3.953,3.953,0,0,0,.25-1.461c0-.269-.173-.461-.519-.557s-.75-.192-1.173-.269a5.23,5.23,0,0,1-1.173-.346.777.777,0,0,1-.519-.75.923.923,0,0,0,.058-.135c.019-.077.039-.135.077-.154a2.656,2.656,0,0,1,.192-.269c.1-.135.154-.231.192-.288h1.077a9.416,9.416,0,0,1,1.48.115,9.11,9.11,0,0,0,1.442.115,10.677,10.677,0,0,0,1.576-.115,10.162,10.162,0,0,1,1.538-.115c.135,0,.288.019.481.038a2.451,2.451,0,0,1,.538.135,1.141,1.141,0,0,1,.442.269.519.519,0,0,1,.192.423.736.736,0,0,1-.481.634,7.457,7.457,0,0,1-1.1.481c-.423.154-.807.308-1.211.442a1.7,1.7,0,0,0-.769.481,3.5,3.5,0,0,0-.481.923,9.663,9.663,0,0,0-.327,1.057c-.1.365-.173.731-.25,1.077-.077.365-.173.711-.25,1.038a28.339,28.339,0,0,1-1.076,2.864c-.423.942-.788,1.9-1.134,2.864-.519,1.461-1.115,2.9-1.769,4.306s-1.249,2.845-1.788,4.325a2.547,2.547,0,0,0-.173.442c-.077.25-.173.5-.25.788-.1.288-.173.538-.25.807a2.424,2.424,0,0,0-.115.461,3.755,3.755,0,0,1-.654,1.038,1.4,1.4,0,0,1-1.077.5.878.878,0,0,1-.673-.211,3.4,3.4,0,0,1-.461-.634,1.7,1.7,0,0,1-.269-.538,6.654,6.654,0,0,0-.135-.654c-.5-1.9-1.077-3.729-1.711-5.517A42.956,42.956,0,0,1,1409.413,338.761Z" transform="translate(-678.594 -209.469)" fill="#729eb8" stroke="#3b3b3b" stroke-width="0.5"/>
    <path id="text_e_6" d="M1549.336,349.2h-.135a1.578,1.578,0,0,0-.385.077,1.964,1.964,0,0,0-.442.115h-6.248c-.038-.058-.077-.115-.135-.192a2.235,2.235,0,0,1-.192-.288v-.154a.6.6,0,0,1,.288-.538,1.767,1.767,0,0,1,.673-.269,5.19,5.19,0,0,1,.788-.115,2.051,2.051,0,0,0,.615-.115,3.779,3.779,0,0,0,.442-.308,1.627,1.627,0,0,0,.365-.365c.019-.058.038-.154.077-.308.019-.154.058-.308.077-.481a3.744,3.744,0,0,0,.038-.461c0-.154.019-.25.019-.288a7.348,7.348,0,0,1,.211-1.1,3.594,3.594,0,0,0,.154-1.1v-3.23a.62.62,0,0,1,.019-.154,1.294,1.294,0,0,0,.039-.269.976.976,0,0,1,.038-.25.617.617,0,0,0,.019-.154v-.154a2.928,2.928,0,0,0-.058-.461c-.039-.211-.058-.365-.077-.461l-.115-6.421-.019-.481v-4.249a1.04,1.04,0,0,0-.154-.288c-.115-.154-.192-.288-.269-.384a1.415,1.415,0,0,0-.731-.5c-.346-.115-.692-.211-1.057-.308a5.611,5.611,0,0,1-.961-.327c-.288-.135-.423-.308-.423-.538a.537.537,0,0,1,.154-.384,1.048,1.048,0,0,1,.346-.211,1.638,1.638,0,0,1,.442-.077c.154,0,.288-.019.4-.019h.327c.077,0,.211,0,.442.019.211,0,.442.019.673.038s.442.038.654.038a2.034,2.034,0,0,1,.442.038l.154.192h.192a.6.6,0,0,1,.25-.115,2.462,2.462,0,0,1,.25-.077h3.23c.077,0,.212-.019.442-.038a.722.722,0,0,0,.385-.1h7.5a.443.443,0,0,0,.25.1c.135.019.211.038.269.038h1.865a1.248,1.248,0,0,1,.846.385,3.189,3.189,0,0,1,.519.846v2a2.624,2.624,0,0,0,.1.346c.058.192.1.308.1.327v.25c0,.077-.019.211-.038.4s-.077.4-.115.615a2.386,2.386,0,0,1-.211.557c-.077.154-.173.25-.288.25h-.019a4.03,4.03,0,0,1-.711-.654,5.711,5.711,0,0,1-.481-.711l-.173-.346a1.587,1.587,0,0,0-.212-.346,4.986,4.986,0,0,0-.4-.769,4,4,0,0,0-.615-.769,3.324,3.324,0,0,0-.788-.577,1.824,1.824,0,0,0-.865-.231h-5.825c-.1-.1-.173-.154-.231-.154a.939.939,0,0,0-.25-.019h-.192c-.077.038-.192.1-.365.173a.735.735,0,0,0-.308.211c-.019,0-.038.038-.038.115s-.019.173-.019.269-.019.192-.019.269a.248.248,0,0,1-.038.154.312.312,0,0,1-.077.173.671.671,0,0,1-.115.173c0,.173,0,.481-.019.923s-.039.884-.058,1.365-.039.942-.058,1.365c-.019.442-.038.731-.057.884v1q.029.173.057.519c.019.231.039.481.058.731s.038.481.058.711c.019.211.019.365.019.461a1.432,1.432,0,0,0,.346.173c.154.058.327.115.5.173a2.646,2.646,0,0,0,.5.115,3.669,3.669,0,0,0,.385.038h.327c.442-.038.9-.058,1.365-.077a5.147,5.147,0,0,0,1.269-.211,2.862,2.862,0,0,0,1.038-.615,2.382,2.382,0,0,0,.615-1.307,2.684,2.684,0,0,1,.019-.327q.029-.231.058-.519l.058-.519a2.755,2.755,0,0,0,.019-.346,1.278,1.278,0,0,1,.461-.442,1.174,1.174,0,0,1,.6-.231.647.647,0,0,1,.6.308,1.193,1.193,0,0,1,.192.673,4.7,4.7,0,0,1-.019.538,2.092,2.092,0,0,1-.115.538v5.421a.949.949,0,0,1,.115.442c0,.154.019.288.019.442v1.211a1.682,1.682,0,0,1-.154.711q-.144.288-.692.288a.781.781,0,0,1-.673-.308,2.629,2.629,0,0,1-.385-.807,8.3,8.3,0,0,1-.212-1.038,8.254,8.254,0,0,0-.211-1.038,2.617,2.617,0,0,0-.327-.807.679.679,0,0,0-.615-.308h-.288a1.178,1.178,0,0,1-.288.058c-.154.019-.327.038-.5.058s-.346.038-.48.058a1.981,1.981,0,0,1-.25.019h-1.884a1.761,1.761,0,0,0-.807.384,2.328,2.328,0,0,0-.461.673,3.034,3.034,0,0,0-.211.846c-.019.308-.038.615-.038.942v.942a1.859,1.859,0,0,1-.019.327,1.665,1.665,0,0,0-.019.288,1.333,1.333,0,0,1-.077.327,1.332,1.332,0,0,0-.077.327v2.268a11.1,11.1,0,0,0,.058,1.173,4.947,4.947,0,0,0,.288,1.173,2.8,2.8,0,0,0,1.269.4c.4.019.827.038,1.288.077a4.113,4.113,0,0,1,.48.058c.25.038.519.077.807.135s.557.1.807.135a4.657,4.657,0,0,0,.481.058h1.48c0,.019.058.077.154.154a.938.938,0,0,0,.231.154h.135a.385.385,0,0,0,.154-.077l.115-.058a.145.145,0,0,1,.077-.019c.038,0,.1.058.154.154a1.712,1.712,0,0,1,.154.211h.192a.873.873,0,0,1,.058-.211c.038-.1.077-.154.135-.154h.135a9.556,9.556,0,0,0,2.73-2.365c.73-.942,1.461-1.9,2.172-2.9l.077-.019c.019,0,.038,0,.038.019a.067.067,0,0,0,.038.019h.019c.019,0,.077.038.154.135a2.106,2.106,0,0,1,.154.192v1.192a5.262,5.262,0,0,1-.058.6c-.038.288-.077.6-.1.923s-.058.634-.1.923a5.271,5.271,0,0,0-.058.6,1.116,1.116,0,0,0-.211.461c-.019.154-.058.327-.077.481a1.877,1.877,0,0,1-.115.442.718.718,0,0,1-.288.365c-.115,0-.307,0-.615.019-.288,0-.615.019-.942.038s-.635.038-.923.058-.48.019-.6.019a.8.8,0,0,0-.173.058c-.1.038-.211.077-.327.135s-.231.1-.327.135a.8.8,0,0,1-.173.058,2.642,2.642,0,0,1-.346-.1c-.192-.058-.308-.1-.327-.1h-.115a9.388,9.388,0,0,0-1.269.1,10.319,10.319,0,0,1-1.346.1,18.7,18.7,0,0,1-2.749-.192A12.3,12.3,0,0,0,1549.336,349.2Z" transform="translate(-791.275 -207.531)" fill="#729eb8" stroke="#3b3b3b" stroke-width="0.5"/>
    <path id="text_v_7" d="M1659.68,284.531c-.077-.192-.192-.557-.365-1.077s-.365-1.077-.557-1.673-.385-1.153-.577-1.673c-.173-.519-.308-.884-.385-1.077a.66.66,0,0,0-.019-.173,1.121,1.121,0,0,0-.038-.25,1.319,1.319,0,0,1-.039-.25.248.248,0,0,0-.038-.154c-.039-.058-.1-.192-.211-.384-.1-.211-.212-.423-.327-.654s-.231-.442-.327-.615a1.607,1.607,0,0,0-.211-.346,1.215,1.215,0,0,0-.058-.288c-.039-.135-.077-.288-.115-.442s-.077-.288-.1-.423a.757.757,0,0,0-.077-.25c-.288-.846-.6-1.692-.942-2.538-.327-.846-.634-1.692-.9-2.557a.842.842,0,0,0-.019-.173c-.019-.1-.038-.211-.058-.327s-.038-.231-.058-.327a.417.417,0,0,0-.058-.173,17.757,17.757,0,0,0-1-3.4c-.462-1.173-.9-2.288-1.327-3.364-.038,0-.077-.1-.1-.269s-.039-.308-.039-.4a13.631,13.631,0,0,0-.615-1.942c-.231-.577-.481-1.269-.75-2.057a16.2,16.2,0,0,1-.5-1.673,13.225,13.225,0,0,0-.577-1.807,4.606,4.606,0,0,0-.923-1.48,2.352,2.352,0,0,0-1.538-.75,2.933,2.933,0,0,1-.346-.019c-.173-.019-.385-.038-.577-.077-.211-.019-.4-.058-.577-.077a2.929,2.929,0,0,0-.346-.019,1.721,1.721,0,0,1-.788-.288.8.8,0,0,1-.4-.711.94.94,0,0,1,.48-.942,2.511,2.511,0,0,1,1.115-.231h.269a.339.339,0,0,1,.115.019.69.69,0,0,0,.211.038.693.693,0,0,1,.211.038.507.507,0,0,0,.135.019h2a.775.775,0,0,1,.25.077.771.771,0,0,0,.25.077h1.153c.058,0,.192,0,.423-.019s.461-.038.711-.058.481-.038.711-.058.365-.019.423-.019h5.5a4.622,4.622,0,0,1,.942-.115c.269,0,.577-.019.942-.019.173,0,.365,0,.576.019a1.567,1.567,0,0,1,.6.115,1.113,1.113,0,0,1,.48.288.976.976,0,0,1,.058,1.077.864.864,0,0,1-.365.269,2.131,2.131,0,0,1-.5.135,4.917,4.917,0,0,0-.519.1c-.577.173-1.134.327-1.673.442a11.687,11.687,0,0,1-1.749.231,1.176,1.176,0,0,0-.519.654,2.851,2.851,0,0,0-.154.884,1.823,1.823,0,0,0,.115.615,3.6,3.6,0,0,0,.288.615,4.647,4.647,0,0,1,.289.634,1.642,1.642,0,0,1,.154.673v.807c.039.038.135.115.269.25a.69.69,0,0,1,.211.25c.038,0,.077.058.115.154a.972.972,0,0,1,.077.211l.115.346a4.754,4.754,0,0,1,.154.558c.058.192.1.385.154.577.038.173.077.308.1.4a2.457,2.457,0,0,1,.154.538c.077.288.154.6.211.942.077.327.135.654.192.942s.1.461.115.538a.713.713,0,0,0,.115.288c.077.135.154.288.23.442a4.6,4.6,0,0,1,.211.442,1.126,1.126,0,0,0,.115.231c.077.192.154.423.25.692l.288.807a6.941,6.941,0,0,1,.231.846,3.835,3.835,0,0,1,.1.75.546.546,0,0,1-.019.154.525.525,0,0,0-.02.173,7.924,7.924,0,0,1,.461.884,6.493,6.493,0,0,1,.289.788c.077.269.154.519.211.807.058.269.135.577.23.884.039.1.115.308.231.654s.25.711.384,1.115.25.788.365,1.134.173.557.211.634q.029.087.115.4a6.165,6.165,0,0,1,.154.692c.058.25.1.481.154.692a1.311,1.311,0,0,0,.115.4,2.84,2.84,0,0,0,.481.846,1.409,1.409,0,0,1,.327.9,2.844,2.844,0,0,0,.25.884c.173.442.365,1,.615,1.711a6.694,6.694,0,0,1,.25.846,4.067,4.067,0,0,1,.077.846,4.529,4.529,0,0,1-.231,1.442c-.154.442-.308.923-.48,1.442a3.079,3.079,0,0,1-.1.519c-.058.25-.135.519-.212.807s-.135.538-.211.788c-.058.25-.1.385-.115.442-.058.173-.115.4-.211.673a5.255,5.255,0,0,1-.289.769,2.195,2.195,0,0,1-.442.634.862.862,0,0,1-.615.269.563.563,0,0,1-.5-.25,1.985,1.985,0,0,1-.269-.577,3.781,3.781,0,0,1-.135-.673,2.073,2.073,0,0,0-.1-.5c0-.019-.019-.058-.038-.135a.458.458,0,0,0-.115-.211c-.038-.077-.1-.135-.135-.211a.721.721,0,0,0-.1-.115,1.689,1.689,0,0,0-.115-.4c-.077-.211-.173-.442-.25-.711-.1-.25-.173-.481-.269-.711a1.61,1.61,0,0,1-.154-.4,1.8,1.8,0,0,1-.192-.308A.962.962,0,0,0,1659.68,284.531Zm13.534-29.99c0-.173-.019-.4-.039-.673a5.577,5.577,0,0,0-.135-.788,2.124,2.124,0,0,0-.288-.711.786.786,0,0,0-.519-.384,20.041,20.041,0,0,0-2-.365,16.51,16.51,0,0,1-1.9-.346c-.23-.058-.442-.1-.635-.135a1.571,1.571,0,0,1-.48-.173.776.776,0,0,1-.308-.346,1.348,1.348,0,0,1-.115-.615.87.87,0,0,1,.135-.519.775.775,0,0,1,.346-.269,1.94,1.94,0,0,1,.481-.1c.173,0,.346-.019.519-.019a10.731,10.731,0,0,1,1.384.077c.442.038.884.077,1.346.077,1.346,0,2.691-.019,4.018-.077,1.326-.038,2.672-.077,4.018-.077h2.249a3.029,3.029,0,0,1,.365.019c.173,0,.365.019.577.038s.4.038.577.038a1.49,1.49,0,0,1,.365.038,1.038,1.038,0,0,1,.442.25.56.56,0,0,1,.231.423.625.625,0,0,1-.211.481,5.953,5.953,0,0,1-.481.384,1.239,1.239,0,0,1-.6.288,4.479,4.479,0,0,1-.731.077c-.231,0-.461,0-.711-.019-.231,0-.461-.019-.711-.019h-.327a5.2,5.2,0,0,0-1.75.634,5.67,5.67,0,0,0-1.48,1.211,9.6,9.6,0,0,0-.769,1.346c-.25.519-.481,1.038-.692,1.6s-.4,1.1-.577,1.615-.327.98-.481,1.384a28.317,28.317,0,0,1-1.076,2.864c-.4.942-.769,1.9-1.077,2.864-.173.5-.346,1.019-.5,1.538a14.784,14.784,0,0,1-.519,1.48,2.14,2.14,0,0,0-.135.288c-.058.135-.115.269-.192.423a3.455,3.455,0,0,1-.211.384.928.928,0,0,1-.154.231,1.169,1.169,0,0,0-.115.135,2.046,2.046,0,0,1-.173.211,1.483,1.483,0,0,0-.154.211c-.038.058-.077.1-.077.115a.421.421,0,0,0-.058.154l-.058.288c-.019.1-.038.192-.058.269a.617.617,0,0,0-.019.154.932.932,0,0,1-.077.211c-.058.115-.115.25-.173.384s-.115.269-.154.385a1.5,1.5,0,0,0-.077.231.417.417,0,0,0-.058.173,1.677,1.677,0,0,0-.039.308c0,.115-.019.211-.019.327a1.12,1.12,0,0,1-.019.192,5.228,5.228,0,0,1-.519,1.211,6.3,6.3,0,0,0-.538,1.153c-.269.75-.519,1.423-.75,2.038a15.42,15.42,0,0,1-.942,2.038l-.115.058-.058.058-.019.019v-.135a9.525,9.525,0,0,1,.116-1.557,13.4,13.4,0,0,1,.288-1.326c.115-.423.25-.846.385-1.269a11.608,11.608,0,0,0,.385-1.423c.115-.673.231-1.326.385-1.961s.308-1.288.481-1.961c0-.019.019-.058.038-.135s.058-.154.077-.25a.972.972,0,0,1,.1-.25.67.67,0,0,1,.115-.173.564.564,0,0,1,.154-.269,1.837,1.837,0,0,1,.211-.25,1.265,1.265,0,0,1,.077-.308,1.642,1.642,0,0,1,.115-.365c0-.058.019-.154.038-.327.019-.154.058-.346.1-.538s.077-.384.115-.538.058-.269.077-.327a3.008,3.008,0,0,1,.115-.346c.077-.211.135-.365.173-.481a.3.3,0,0,1,.057-.115,2.1,2.1,0,0,0,.116-.211,2.052,2.052,0,0,1,.115-.211.626.626,0,0,1,.077-.135,2.634,2.634,0,0,1,.02-.327,5.066,5.066,0,0,1,.038-.519q.029-.288.058-.519c.019-.154.038-.269.077-.288a1.121,1.121,0,0,1,.1-.25c.058-.135.135-.269.211-.423s.135-.288.211-.442q.086-.2.115-.288c.038-.1.1-.231.192-.442s.154-.346.193-.423q.029-.288.057-.461c.019-.115.039-.211.058-.308a.416.416,0,0,1,.058-.173c.019-.077.077-.269.154-.577.1-.308.192-.634.308-.961s.231-.654.327-.942a5.215,5.215,0,0,1,.211-.557,1.1,1.1,0,0,1,.02-.192,2.4,2.4,0,0,1,.038-.346,1.624,1.624,0,0,1,.077-.327c.019-.1.058-.154.077-.154a.965.965,0,0,1,.269-.519A.441.441,0,0,0,1673.214,254.541Z" transform="translate(-873.666 -147.03)" fill="#729eb8" stroke="#3b3b3b" stroke-width="0.5"/>
    <path id="text_o_8" d="M1830.9,340.9a8.8,8.8,0,0,1,.115-1.25q.115-.75.288-1.557c.135-.538.269-1.038.442-1.538a9.471,9.471,0,0,1,.519-1.211,3.849,3.849,0,0,1,.692-.942c.269-.269.538-.577.846-.942a2.059,2.059,0,0,0,.4-.731,2.06,2.06,0,0,1,.4-.73c.077-.1.192-.211.365-.385a4.568,4.568,0,0,1,.365-.346c.039-.019.115-.038.231-.077a.941.941,0,0,1,.231-.058,3.88,3.88,0,0,0,1.115-.846,4.6,4.6,0,0,1,1.1-.884,6.806,6.806,0,0,1,2.519-.807,18.415,18.415,0,0,1,2.672-.192.98.98,0,0,1,.6.211,2.052,2.052,0,0,0,.615.308.942.942,0,0,0,.25.058,2.881,2.881,0,0,0,.423.038,3.433,3.433,0,0,1,.442.038.943.943,0,0,1,.25.058.772.772,0,0,1,.25.077c.135.038.211.077.269.1.039.019.115.058.25.115a4.039,4.039,0,0,1,.4.211c.154.077.288.154.423.231a1.622,1.622,0,0,0,.288.135,5.652,5.652,0,0,0,.846.25,2.34,2.34,0,0,1,.827.365.974.974,0,0,1,.173.154,3.679,3.679,0,0,0,.269.288l.269.269.154.154a.725.725,0,0,0,.154.1,1.749,1.749,0,0,1,.25.154c.1.058.173.115.269.173s.154.1.192.115a6.489,6.489,0,0,1,1.4,1.634,9.817,9.817,0,0,1,.942,2.1,13.4,13.4,0,0,1,.538,2.268,14.514,14.514,0,0,1,.173,2.153v.75a5.331,5.331,0,0,0-.077.75c-.019.308-.038.634-.058.942s-.038.577-.038.807-.019.365-.019.384c-.019.058-.058.192-.115.423s-.135.481-.231.75l-.288.807a5.828,5.828,0,0,1-.231.577,1.176,1.176,0,0,0-.1.211c-.038.1-.1.211-.154.327s-.115.231-.154.327a.468.468,0,0,0-.077.211,1.125,1.125,0,0,1-.1.25.91.91,0,0,0-.1.269,3.15,3.15,0,0,1-.327.385c-.154.192-.327.384-.519.615-.173.211-.346.423-.519.615-.154.192-.269.327-.327.4a2.645,2.645,0,0,0-.269.192.615.615,0,0,1-.25.135.244.244,0,0,1-.211.135,1.535,1.535,0,0,1-.308.288c-.154.135-.307.25-.48.385-.154.135-.308.25-.442.346-.135.115-.212.173-.231.192a1.167,1.167,0,0,1-.5.211,2.867,2.867,0,0,0-.557.115.621.621,0,0,1-.135.077,2.116,2.116,0,0,0-.211.115,1.027,1.027,0,0,1-.211.1.753.753,0,0,1-.115.038c-.019,0-.077.019-.192.038s-.231.058-.365.077a2.27,2.27,0,0,0-.384.077c-.115.019-.192.038-.231.038a1.4,1.4,0,0,0-.442.135,4.376,4.376,0,0,0-.4.192h-2.768c-.423,0-.827,0-1.211-.019a7.08,7.08,0,0,1-1.134-.115.5.5,0,0,1-.135-.058c-.077-.038-.154-.077-.25-.135a1.423,1.423,0,0,1-.25-.154,1.464,1.464,0,0,0-.135-.077.619.619,0,0,1-.154-.019,1.482,1.482,0,0,1-.288-.039c-.1-.019-.192-.038-.269-.058a.619.619,0,0,0-.154-.019.812.812,0,0,1-.269-.154c-.154-.115-.231-.154-.269-.154a.853.853,0,0,0-.308-.154,3.165,3.165,0,0,0-.365-.154,7.306,7.306,0,0,1-1.25-.769,7.835,7.835,0,0,1-1.192-1.077,12.58,12.58,0,0,1-1.019-1.25,6.51,6.51,0,0,1-.731-1.326,1.919,1.919,0,0,1-.115-.461c-.038-.231-.077-.365-.077-.4a1.16,1.16,0,0,1-.154-.25,2.341,2.341,0,0,0-.192-.288c-.154-.308-.308-.673-.462-1.077a12.285,12.285,0,0,1-.385-1.269,10.854,10.854,0,0,1-.25-1.288C1830.939,341.607,1830.9,341.223,1830.9,340.9Zm4.941.673v1.6a3.033,3.033,0,0,0,.115.673c.077.308.154.634.25.961s.173.654.269.942a2.73,2.73,0,0,0,.25.6,1.946,1.946,0,0,0,.173.308c.1.154.212.308.327.481s.231.327.327.481.154.25.173.288.058.115.115.25.135.269.212.423.135.288.211.423a.613.613,0,0,0,.154.25c0,.019.038.058.115.135a2.317,2.317,0,0,0,.231.211,2.2,2.2,0,0,1,.212.211l.115.115a3.249,3.249,0,0,1,.48.692,1.7,1.7,0,0,0,.577.634c.019.038.115.077.307.115a2.812,2.812,0,0,1,.365.1,9.375,9.375,0,0,0,1.038.346,4.967,4.967,0,0,0,1.115.115,2.6,2.6,0,0,0,.827-.115,1.761,1.761,0,0,0,.615-.346,6.693,6.693,0,0,0,.577-.5,5.494,5.494,0,0,1,.692-.577,1.647,1.647,0,0,0,.577-.692,4.4,4.4,0,0,1,.442-.769,5.324,5.324,0,0,1,.558-.788q.317-.375.577-.75a2.2,2.2,0,0,0,.154-.269c.019-.077.038-.135.058-.211,0-.058.019-.135.019-.231a.948.948,0,0,1,.1-.346q.029,0,.115-.173c.058-.115.135-.25.211-.423a5.182,5.182,0,0,0,.211-.481c.077-.154.135-.288.192-.4a.924.924,0,0,0,.058-.135l.058-.115a.145.145,0,0,0,.019-.077,3.559,3.559,0,0,0,.115-.481c.038-.211.077-.442.115-.654s.077-.4.1-.577.038-.269.038-.308V340.7c0-.942-.038-1.9-.135-2.864a10.116,10.116,0,0,0-.673-2.826c-.308-.692-.635-1.326-.961-1.942a5.4,5.4,0,0,0-1.442-1.615l-.346-.173c-.192-.1-.4-.211-.634-.327s-.442-.231-.634-.327a3.679,3.679,0,0,0-.385-.173c-.019-.019-.077-.058-.154-.115a1.223,1.223,0,0,0-.269-.154c-.1-.058-.192-.1-.288-.154a.917.917,0,0,1-.154-.077c0-.039-.058-.058-.154-.058h-.211a4.365,4.365,0,0,0-1.942.442,5.466,5.466,0,0,0-1.576,1.153,10.351,10.351,0,0,0-1.269,1.576,15.993,15.993,0,0,0-.961,1.769,15.436,15.436,0,0,0-1.038,3.268A17.852,17.852,0,0,0,1835.841,341.569Z" transform="translate(-1024.798 -211.085)" fill="#729eb8" stroke="#3b3b3b" stroke-width="0.5"/>
    <path id="text_y_9" d="M1971.839,348.234c-.615,0-1.25.038-1.9.1s-1.288.1-1.922.1h-1.384a.228.228,0,0,1-.154-.192c0-.1-.019-.173-.019-.269v-.192a1.026,1.026,0,0,1,.192-.692,1.4,1.4,0,0,1,.5-.365,3.461,3.461,0,0,1,.673-.231,4.02,4.02,0,0,0,.673-.25c.058-.038.154-.1.269-.173.135-.077.25-.173.365-.25a3.921,3.921,0,0,1,.346-.25,1.244,1.244,0,0,0,.211-.173c.019,0,.038,0,.038-.019s.039-.038.077-.058l.077-.077.307-3.191.192-.346v-2.672a1.431,1.431,0,0,1-.308-.615,4.231,4.231,0,0,1-.135-.711c-.019-.25-.058-.5-.077-.75a3.084,3.084,0,0,0-.154-.731.31.31,0,0,1-.077-.135.4.4,0,0,1-.077-.115.276.276,0,0,0-.038-.115c-.019-.077-.077-.211-.154-.442a1,1,0,0,0-.173-.385,2.807,2.807,0,0,0-.077-.384c-.038-.231-.077-.4-.1-.481-.1-.154-.173-.288-.231-.385a2.791,2.791,0,0,0-.173-.25,1.33,1.33,0,0,1-.115-.173,7.661,7.661,0,0,1-.711-1.576c-.154-.519-.308-1.077-.461-1.653a.311.311,0,0,1-.077-.135.4.4,0,0,1-.077-.115.1.1,0,0,0-.038-.077,12.077,12.077,0,0,1-.558-1.115c-.173-.4-.346-.807-.538-1.211s-.4-.788-.615-1.153a3.886,3.886,0,0,0-.827-.942,2.56,2.56,0,0,0-.711-.442c-.231-.1-.461-.192-.711-.288a4.448,4.448,0,0,1-.673-.346,2.034,2.034,0,0,1-.6-.615v-.192a.6.6,0,0,1,.288-.481.96.96,0,0,1,.519-.211h.192a10.207,10.207,0,0,0,1.154.231,8.563,8.563,0,0,0,1.211.1,1.474,1.474,0,0,0,.519-.077,2.106,2.106,0,0,1,.519-.077h.135a2.618,2.618,0,0,1,.308.019,4.728,4.728,0,0,0,.538.038,4.092,4.092,0,0,1,.519.038,2.385,2.385,0,0,0,.288.019h3.595a2.035,2.035,0,0,1,.615.288.817.817,0,0,1,.038,1.1,1.55,1.55,0,0,1-.461.327,2.541,2.541,0,0,1-.577.192,2.02,2.02,0,0,0-.481.154v1.538a.835.835,0,0,1,.423.557c.1.288.173.634.25.98.058.365.115.711.154,1.057a2.388,2.388,0,0,0,.173.75c.25.461.5.865.711,1.211a6.489,6.489,0,0,1,.634,1.153c.077.135.135.192.192.211a.722.722,0,0,0,.212.019.071.071,0,0,0,.058-.019c.019,0,.038,0,.038-.019a.067.067,0,0,1,.038-.019,3.238,3.238,0,0,0,.942-.692,5.526,5.526,0,0,0,.654-.846,6.39,6.39,0,0,0,.48-.961c.154-.346.288-.692.462-1.057a2.216,2.216,0,0,1,.346-.519l.346-.4a3.622,3.622,0,0,0,.307-.442,1.757,1.757,0,0,0,.192-.673v-1.346a3.362,3.362,0,0,0-.635-.288,8.109,8.109,0,0,1-.865-.346,3.707,3.707,0,0,1-.769-.461.756.756,0,0,1-.327-.577.609.609,0,0,1,.173-.442,1.14,1.14,0,0,1,.442-.269,2.522,2.522,0,0,1,.519-.115,4.028,4.028,0,0,1,.462-.019h.192a1.536,1.536,0,0,1,.288.077,1.891,1.891,0,0,1,.384.115h1.73c.615,0,1.211-.038,1.788-.1s1.173-.1,1.788-.1c.154,0,.327.019.558.038a2.493,2.493,0,0,1,.653.154,2.041,2.041,0,0,1,.538.288.539.539,0,0,1,.231.442.981.981,0,0,1-.231.615,4.157,4.157,0,0,1-.481.519.978.978,0,0,0-.327-.058h-.307a2.927,2.927,0,0,0-1.326.288c-.385.192-.807.442-1.269.73-.038.058-.1.115-.154.211a.978.978,0,0,0-.154.173c-.423.519-.807,1.057-1.173,1.6s-.711,1.077-1.057,1.634c-.269.423-.557.827-.846,1.23s-.558.807-.827,1.211a11.512,11.512,0,0,0-.711,1.25,5.469,5.469,0,0,0-.481,1.365V340.1a4.2,4.2,0,0,1-.077.884,7.3,7.3,0,0,1-.154.75c-.058.25-.1.5-.135.75a5.317,5.317,0,0,0-.058.807v.481a.725.725,0,0,0,.058.384c0,.038.019.115.038.25a2.82,2.82,0,0,0,.1.384l.115.4a1.735,1.735,0,0,0,.115.308,1.849,1.849,0,0,0,.519.865,1.713,1.713,0,0,0,.731.346,3.83,3.83,0,0,0,.807.077,2.839,2.839,0,0,1,.731.077,1.024,1.024,0,0,1,.538.269.881.881,0,0,1,.211.692c0,.384-.1.615-.307.711a1.644,1.644,0,0,1-.731.154h-.788a13.437,13.437,0,0,1-2.634-.25A14.2,14.2,0,0,0,1971.839,348.234Z" transform="translate(-1130.613 -206.562)" fill="#729eb8" stroke="#3b3b3b" stroke-width="0.5"/>
    <path id="text_a_10" d="M2073.4,349.334a.936.936,0,0,1,.25-.731,2.021,2.021,0,0,1,.577-.384c.231-.1.461-.173.711-.25a1.958,1.958,0,0,0,.673-.308,1.48,1.48,0,0,0,.308-.211c.134-.1.269-.211.423-.308.154-.115.269-.211.385-.288s.154-.135.154-.154a1.047,1.047,0,0,0,.211-.25,1.251,1.251,0,0,1,.173-.25.468.468,0,0,1,.077-.211,2.559,2.559,0,0,0,.154-.327c.058-.115.115-.211.154-.308a.466.466,0,0,0,.077-.211c.154-.192.289-.4.461-.6a5.413,5.413,0,0,0,.4-.6,9.877,9.877,0,0,0,.789-1.922,11.242,11.242,0,0,1,.75-1.942c.019-.038.057-.135.135-.308s.154-.346.25-.538.192-.365.269-.519a.952.952,0,0,1,.173-.288.617.617,0,0,1,.019-.154c.019-.077.038-.173.058-.269s.038-.192.058-.269a.66.66,0,0,0,.019-.173.551.551,0,0,1,.077-.211,2.286,2.286,0,0,1,.154-.308c.058-.115.115-.211.173-.308s.1-.173.115-.211v-.711a.95.95,0,0,1,.077-.211,1.646,1.646,0,0,1,.1-.231c0-.038.058-.1.154-.192.115-.1.173-.135.211-.135a6.115,6.115,0,0,0,.4-.923c.1-.288.173-.558.269-.827a2.77,2.77,0,0,1,.385-.75,2.681,2.681,0,0,1,.75-.711,1.375,1.375,0,0,1,.019-.25,1.754,1.754,0,0,0,.019-.308,1.47,1.47,0,0,0-.211-.75,1.578,1.578,0,0,1-.211-.807v-.058a1.842,1.842,0,0,1,.077-.481c.038-.211.077-.442.115-.654s.077-.4.115-.577a1.985,1.985,0,0,0,.058-.346.558.558,0,0,0,.1-.308.445.445,0,0,1,.23-.365c.077-.019.25-.077.519-.154s.442-.135.538-.173a3.309,3.309,0,0,0,.519-.519c.173-.192.346-.384.519-.557a2.56,2.56,0,0,1,.577-.442,1.454,1.454,0,0,1,.788-.192h.289a3.933,3.933,0,0,1,.615.98,5.9,5.9,0,0,1,.308,1.038,10.773,10.773,0,0,1,.173,1.1q.058.548.173,1.153.087.029.231.288a1.3,1.3,0,0,1,.154.327,5.523,5.523,0,0,1,.288,1.211,7.271,7.271,0,0,0,.212,1.153c.154.577.308,1.153.481,1.711s.365,1.134.577,1.711q.259.894.519,1.615c.154.481.327,1.077.48,1.769.058.192.1.423.154.673.039.25.1.519.154.769.058.269.116.519.154.75a3.252,3.252,0,0,0,.211.615c0,.077.077.192.231.365s.25.269.289.308c0,.038.019.1.038.211a1.324,1.324,0,0,0,.115.327c.039.115.077.231.115.327s.058.173.077.212a.486.486,0,0,0,.077.173,2.29,2.29,0,0,0,.154.308,2.489,2.489,0,0,1,.154.327c.038.115.077.173.077.192a5.57,5.57,0,0,1,.212.731c.077.269.134.538.212.827a4.891,4.891,0,0,0,.23.807,2.761,2.761,0,0,0,.346.673,2.4,2.4,0,0,0,.442.442c.173.154.346.308.519.481a3.711,3.711,0,0,1,.423.538,1.144,1.144,0,0,1,.173.615v.135a.718.718,0,0,1-.019.211.186.186,0,0,1-.154.135.786.786,0,0,1-.192.058l-.289.058q-.173.029-.288.058a.942.942,0,0,1-.211.019h-5.229a4.786,4.786,0,0,1-.5-.058c-.269-.038-.539-.077-.846-.115s-.6-.077-.846-.115c-.269-.038-.423-.077-.481-.077h-.4a1.241,1.241,0,0,1,.442-1.019,5.47,5.47,0,0,1,.961-.615,5.44,5.44,0,0,0,.981-.654,1.319,1.319,0,0,0,.442-1.1,1.353,1.353,0,0,0-.058-.269.87.87,0,0,1-.019-.211,2.294,2.294,0,0,0-.058-.269c-.038-.154-.077-.346-.134-.538s-.115-.4-.154-.6c-.058-.192-.115-.346-.154-.461-.1-.288-.173-.577-.25-.846a2.335,2.335,0,0,0-.346-.731,1.864,1.864,0,0,0-.557-.538,1.924,1.924,0,0,0-.846-.288h-3.73c-.1.019-.23.038-.4.077-.173.019-.365.058-.558.077s-.365.038-.519.038-.269.019-.327.019a3.007,3.007,0,0,0-.846.346,1.2,1.2,0,0,0-.519.692,2.289,2.289,0,0,0-.154.538c-.058.231-.115.461-.154.711-.058.231-.1.442-.135.615a2.3,2.3,0,0,0-.058.327c0,.038-.019.192-.039.442-.019.269-.038.461-.038.615a.616.616,0,0,0,.019.154c0,.1.019.192.019.288,0,.115.019.211.019.308s.019.173.019.211a2.8,2.8,0,0,0,.6.461c.269.154.538.327.807.5a7.98,7.98,0,0,1,.731.519,1.014,1.014,0,0,1,.385.519.59.59,0,0,1-.154.461,1.56,1.56,0,0,1-.442.327,2.614,2.614,0,0,1-.538.211,2.717,2.717,0,0,1-.481.077,1.578,1.578,0,0,1-.538-.1,1.579,1.579,0,0,0-.538-.1h-.192a1.12,1.12,0,0,0-.25.1,1.673,1.673,0,0,1-.25.1h-1.538a1.222,1.222,0,0,0-.25.077c-.154.038-.23.077-.25.077h-.385a1.543,1.543,0,0,1-.289-.077c-.173-.038-.269-.077-.288-.077h-2.057A.975.975,0,0,1,2073.4,349.334Zm8.9-11v.077a.1.1,0,0,1,.038.077c0,.038.038.077.077.115a.309.309,0,0,0,.077.135c.115.1.269.231.481.384a3.479,3.479,0,0,0,.384.288h1.346a.281.281,0,0,1,.154.1.54.54,0,0,0,.154.1h.923c.116,0,.269,0,.5-.019a4.009,4.009,0,0,0,.673-.077,1.488,1.488,0,0,0,.576-.211.429.429,0,0,0,.25-.384v-.192a1.025,1.025,0,0,1-.077-.154c-.039-.077-.077-.173-.116-.25-.038-.1-.077-.173-.115-.269a.627.627,0,0,1-.057-.192c-.154-.461-.327-.923-.5-1.346-.173-.442-.346-.865-.5-1.269a5.11,5.11,0,0,1-.211-.654,1.42,1.42,0,0,0-.288-.6,2.131,2.131,0,0,1-.192-.154,3.728,3.728,0,0,1-.288-.269,2.966,2.966,0,0,0-.269-.25c-.077-.077-.116-.115-.116-.135a.786.786,0,0,1-.25-.346c-.039-.135-.154-.192-.346-.192h-.077a7.082,7.082,0,0,1-.654,1.634,10.176,10.176,0,0,0-.731,1.538,2.132,2.132,0,0,1-.077.481c-.038.231-.077.365-.115.384a1.154,1.154,0,0,1-.135.346c-.077.135-.154.288-.231.442a4.966,4.966,0,0,0-.211.461A1.5,1.5,0,0,0,2082.3,338.338Z" transform="translate(-1220.678 -208.258)" fill="#729eb8" stroke="#3b3b3b" stroke-width="0.5"/>
    <path id="text_g_11" d="M2214.158,342.238a.813.813,0,0,1,.077-.385.81.81,0,0,0,.077-.384.892.892,0,0,0-.077-.4,1.164,1.164,0,0,1-.077-.461v-.461a2.342,2.342,0,0,1,.058-.442c.038-.192.077-.365.1-.538a2.792,2.792,0,0,1,.1-.461,1.745,1.745,0,0,0,.058-.231l.385-.327c0-.077.019-.211.038-.4s.058-.4.1-.615.077-.423.115-.615.058-.327.077-.384c.038-.077.1-.173.173-.327s.173-.288.25-.442c.1-.154.173-.288.25-.442.077-.135.134-.231.173-.308a2.513,2.513,0,0,0,.077-.346,2.868,2.868,0,0,0,.058-.346,4.144,4.144,0,0,1,1.1-1.538q.692-.577,1.442-1.211c.019-.019.1-.1.231-.25a1.348,1.348,0,0,1,.25-.25,6.431,6.431,0,0,1,1.826-.9c.6-.173,1.23-.327,1.9-.481.538-.115,1.057-.211,1.557-.327A6.735,6.735,0,0,1,2226,328.8c.75,0,1.442.019,2.076.038.615.019,1.346.077,2.153.154a.581.581,0,0,1,.25.077.659.659,0,0,0,.308.077,6.874,6.874,0,0,1,.73.269c.25.115.5.211.75.327a5.511,5.511,0,0,0,.788.288,2.926,2.926,0,0,0,.807.115c.231,0,.461,0,.673-.019a1.453,1.453,0,0,0,.615-.154.57.57,0,0,0,.365-.288c.058-.154.211-.211.442-.211a.275.275,0,0,1,.231.115,1.023,1.023,0,0,1,.154.288l.115.346a2.013,2.013,0,0,1,.039.25v5.614a2.6,2.6,0,0,1-.019.346,1.633,1.633,0,0,1-.077.442.94.94,0,0,1-.211.384.459.459,0,0,1-.385.173.647.647,0,0,1-.385-.211c-.154-.154-.25-.231-.289-.269a11.9,11.9,0,0,1-.788-1.557,10.609,10.609,0,0,0-.73-1.5l-.135-.135-.115-.115a.509.509,0,0,1-.1-.115c-.077-.058-.173-.154-.308-.269a3.815,3.815,0,0,0-.423-.365,3.459,3.459,0,0,1-.385-.346,2.007,2.007,0,0,1-.211-.211,3.819,3.819,0,0,0-1.557-.827,17.044,17.044,0,0,1-1.672-.558h-1.346a10.714,10.714,0,0,0-1.634.115,7.24,7.24,0,0,0-1.442.384,8.055,8.055,0,0,0-1.365.654c-.442.269-.923.558-1.4.9a1.351,1.351,0,0,0-.481.711,2.369,2.369,0,0,1-.346.827,14.1,14.1,0,0,0-1,1.769,16.7,16.7,0,0,0-.808,2,16.486,16.486,0,0,0-.538,2.076,10.566,10.566,0,0,0-.211,2,9.237,9.237,0,0,0,.365,2.557,8.783,8.783,0,0,0,1.019,2.365.263.263,0,0,0,.077.058c.058.058.077.1.077.115a1.147,1.147,0,0,0,.154.211,2.773,2.773,0,0,0,.211.288c.077.115.135.211.192.288.058.1.1.154.115.192a.609.609,0,0,1,.115.25c.038.135.077.231.077.25.038,0,.1.038.192.115s.173.154.269.231.173.154.25.211.115.1.115.115c.327.288.673.577,1.019.846a7.09,7.09,0,0,0,1.115.75,5.682,5.682,0,0,0,1.211.538,4.385,4.385,0,0,0,1.346.211,5.947,5.947,0,0,0,2.153-.346,6.69,6.69,0,0,0,1.865-1.192c.038-.019.115-.077.25-.154a1.248,1.248,0,0,0,.25-.173c0-.019.019-.135.058-.327s.077-.308.134-.346c0-.019.019-.077.039-.154a.373.373,0,0,1,.1-.173v-5.383l-.327-.711c-.231,0-.48-.019-.75-.038a2.9,2.9,0,0,1-.73-.154,1.449,1.449,0,0,1-.577-.346.842.842,0,0,1-.23-.615,1.179,1.179,0,0,1,.019-.25c0-.1.038-.154.077-.154l1-.327h5.21a3.43,3.43,0,0,1,.4.019c.173.019.365.038.519.058a4.4,4.4,0,0,0,.481.038,2.653,2.653,0,0,1,.269.019,1.171,1.171,0,0,0,.212.1,2.3,2.3,0,0,1,.307.154c.115.058.211.115.308.173s.173.115.23.154c.039,0,.077.038.1.115a.989.989,0,0,1,.038.173.324.324,0,0,1-.25.327,2.519,2.519,0,0,1-.6.115,4.107,4.107,0,0,0-.673.115.669.669,0,0,0-.48.308c-.038.154-.058.288-.077.4a2.307,2.307,0,0,0-.077.6c-.019.1-.038.231-.057.423s-.039.385-.058.577-.039.384-.058.538a2.5,2.5,0,0,0-.019.327v2.864a1.06,1.06,0,0,1,.212.211c.077.1.173.211.25.308.1.115.173.211.25.308a.939.939,0,0,1,.154.231v.269a1.483,1.483,0,0,1-.211.846,1.674,1.674,0,0,1-.519.519,2.654,2.654,0,0,1-.711.308c-.269.077-.519.154-.769.211a1.606,1.606,0,0,0-.192.038,1.515,1.515,0,0,0-.269.1c-.1.038-.173.077-.25.115a1.087,1.087,0,0,0-.154.077,15.308,15.308,0,0,1-1.711.481,6.877,6.877,0,0,0-1.634.577h-5.5c-.038-.058-.154-.1-.327-.135a2.048,2.048,0,0,0-.385-.058,22.906,22.906,0,0,1-2.5-.654,11.91,11.91,0,0,1-2.365-1.038,3.723,3.723,0,0,1-.884-.673,6.767,6.767,0,0,1-.75-.884c-.231-.308-.461-.634-.673-.942s-.4-.615-.615-.9a5.837,5.837,0,0,1-.365-.634c-.1-.192-.173-.365-.25-.538-.058-.173-.135-.346-.192-.538s-.135-.4-.211-.673l-.019-.019a.06.06,0,0,0-.039-.019.06.06,0,0,1-.039-.019.27.27,0,0,1-.077-.058,1.274,1.274,0,0,1-.154-.615c-.038-.308-.058-.634-.077-1s-.039-.711-.039-1.038A2.727,2.727,0,0,0,2214.158,342.238Z" transform="translate(-1334.329 -211.408)" fill="#729eb8" stroke="#3b3b3b" stroke-width="0.5"/>
    <path id="text_e_12" d="M2363.836,349.2h-.135a1.574,1.574,0,0,0-.385.077,1.961,1.961,0,0,0-.442.115h-6.248c-.039-.058-.077-.115-.135-.192a2.278,2.278,0,0,1-.192-.288v-.154a.6.6,0,0,1,.288-.538,1.767,1.767,0,0,1,.673-.269,5.18,5.18,0,0,1,.788-.115,2.053,2.053,0,0,0,.615-.115,3.769,3.769,0,0,0,.442-.308,1.627,1.627,0,0,0,.365-.365c.019-.058.038-.154.077-.308.019-.154.058-.308.077-.481a3.674,3.674,0,0,0,.039-.461c0-.154.019-.25.019-.288a7.349,7.349,0,0,1,.211-1.1,3.59,3.59,0,0,0,.154-1.1v-3.23a.624.624,0,0,1,.019-.154,1.294,1.294,0,0,0,.039-.269.971.971,0,0,1,.038-.25.617.617,0,0,0,.019-.154v-.154a2.928,2.928,0,0,0-.058-.461c-.039-.211-.058-.365-.077-.461l-.115-6.421-.019-.481v-4.249a1.038,1.038,0,0,0-.154-.288c-.115-.154-.192-.288-.269-.384a1.414,1.414,0,0,0-.73-.5c-.346-.115-.692-.211-1.057-.308a5.615,5.615,0,0,1-.961-.327c-.288-.135-.423-.308-.423-.538a.538.538,0,0,1,.154-.384,1.048,1.048,0,0,1,.346-.211,1.64,1.64,0,0,1,.442-.077c.154,0,.288-.019.4-.019h.327c.077,0,.211,0,.442.019.212,0,.442.019.673.038s.442.038.653.038a2.036,2.036,0,0,1,.442.038l.154.192h.192a.6.6,0,0,1,.25-.115,2.465,2.465,0,0,1,.25-.077h3.23c.077,0,.211-.019.442-.038a.722.722,0,0,0,.385-.1h7.5a.442.442,0,0,0,.25.1c.135.019.211.038.269.038h1.865a1.247,1.247,0,0,1,.846.385,3.183,3.183,0,0,1,.519.846v2a2.613,2.613,0,0,0,.1.346c.058.192.1.308.1.327v.25c0,.077-.019.211-.038.4s-.077.4-.115.615a2.391,2.391,0,0,1-.211.557c-.077.154-.173.25-.288.25h-.019a4.02,4.02,0,0,1-.711-.654,5.672,5.672,0,0,1-.48-.711l-.173-.346a1.6,1.6,0,0,0-.212-.346,4.974,4.974,0,0,0-.4-.769,4,4,0,0,0-.615-.769,3.321,3.321,0,0,0-.788-.577,1.823,1.823,0,0,0-.865-.231h-5.825c-.1-.1-.173-.154-.231-.154a.939.939,0,0,0-.25-.019h-.192c-.077.038-.192.1-.365.173a.735.735,0,0,0-.307.211c-.019,0-.039.038-.039.115s-.019.173-.019.269-.019.192-.019.269a.248.248,0,0,1-.038.154.313.313,0,0,1-.077.173.671.671,0,0,1-.115.173c0,.173,0,.481-.019.923s-.039.884-.058,1.365-.038.942-.058,1.365c-.019.442-.038.731-.058.884v1q.029.173.058.519c.019.231.038.481.058.731s.039.481.058.711c.019.211.019.365.019.461a1.432,1.432,0,0,0,.346.173c.154.058.327.115.5.173a2.653,2.653,0,0,0,.5.115,3.681,3.681,0,0,0,.385.038h.327c.442-.038.9-.058,1.365-.077a5.147,5.147,0,0,0,1.269-.211,2.86,2.86,0,0,0,1.038-.615,2.382,2.382,0,0,0,.615-1.307,2.667,2.667,0,0,1,.019-.327q.029-.231.058-.519.029-.26.058-.519a2.79,2.79,0,0,0,.019-.346,1.278,1.278,0,0,1,.461-.442,1.174,1.174,0,0,1,.6-.231.648.648,0,0,1,.6.308,1.2,1.2,0,0,1,.192.673,4.733,4.733,0,0,1-.019.538,2.091,2.091,0,0,1-.115.538v5.421a.951.951,0,0,1,.115.442c0,.154.019.288.019.442v1.211a1.684,1.684,0,0,1-.154.711q-.144.288-.692.288a.781.781,0,0,1-.673-.308,2.62,2.62,0,0,1-.385-.807,8.274,8.274,0,0,1-.212-1.038,8.233,8.233,0,0,0-.211-1.038,2.62,2.62,0,0,0-.327-.807.679.679,0,0,0-.615-.308h-.288a1.176,1.176,0,0,1-.289.058c-.154.019-.327.038-.5.058s-.346.038-.48.058a1.98,1.98,0,0,1-.25.019h-1.884a1.761,1.761,0,0,0-.807.384,2.328,2.328,0,0,0-.461.673,3.034,3.034,0,0,0-.211.846c-.019.308-.039.615-.039.942v.942a1.883,1.883,0,0,1-.019.327,1.655,1.655,0,0,0-.019.288,1.334,1.334,0,0,1-.077.327,1.332,1.332,0,0,0-.077.327v2.268a11.17,11.17,0,0,0,.058,1.173,4.948,4.948,0,0,0,.289,1.173,2.794,2.794,0,0,0,1.269.4c.4.019.826.038,1.288.077a4.119,4.119,0,0,1,.48.058c.25.038.519.077.808.135s.557.1.807.135a4.648,4.648,0,0,0,.481.058h1.48c0,.019.058.077.154.154a.94.94,0,0,0,.231.154h.135a.385.385,0,0,0,.154-.077l.115-.058a.145.145,0,0,1,.077-.019c.038,0,.1.058.154.154a1.667,1.667,0,0,1,.154.211h.192a.867.867,0,0,1,.058-.211c.039-.1.077-.154.135-.154h.135a9.553,9.553,0,0,0,2.73-2.365c.73-.942,1.461-1.9,2.172-2.9l.077-.019c.019,0,.038,0,.038.019a.067.067,0,0,0,.039.019h.019c.02,0,.077.038.154.135a2.114,2.114,0,0,1,.154.192v1.192a5.292,5.292,0,0,1-.058.6c-.039.288-.077.6-.1.923s-.058.634-.1.923a5.31,5.31,0,0,0-.058.6,1.119,1.119,0,0,0-.211.461c-.019.154-.057.327-.077.481a1.872,1.872,0,0,1-.115.442.718.718,0,0,1-.288.365c-.115,0-.308,0-.615.019-.288,0-.615.019-.942.038s-.634.038-.923.058-.48.019-.6.019a.805.805,0,0,0-.173.058c-.1.038-.211.077-.327.135s-.23.1-.327.135a.8.8,0,0,1-.173.058,2.642,2.642,0,0,1-.346-.1c-.192-.058-.308-.1-.327-.1h-.115a9.4,9.4,0,0,0-1.269.1,10.309,10.309,0,0,1-1.346.1,18.7,18.7,0,0,1-2.749-.192A12.293,12.293,0,0,0,2363.836,349.2Z" transform="translate(-1449.192 -207.531)" fill="#729eb8" stroke="#3b3b3b" stroke-width="0.5"/>
    <path id="text_s_13" d="M2489.6,348.771v-.058a3.135,3.135,0,0,1,.019-.384c.019-.154.039-.327.057-.481s.039-.308.058-.442a1.577,1.577,0,0,0,.02-.231c.019-.135.038-.288.077-.481a3.174,3.174,0,0,1,.154-.577,1.306,1.306,0,0,1,.269-.481.537.537,0,0,1,.423-.211.869.869,0,0,1,.25.019.539.539,0,0,1,.211.211,3.058,3.058,0,0,1,.154.634,2.18,2.18,0,0,0,.173.673.311.311,0,0,0,.077.173,1.91,1.91,0,0,1,.1.211c.192.385.4.807.615,1.288a13.791,13.791,0,0,0,.711,1.4,8.366,8.366,0,0,0,.885,1.23,2.606,2.606,0,0,0,1.173.769q.029.058.288.058a4.855,4.855,0,0,0,.519-.019,3.335,3.335,0,0,1,.346-.019,2.07,2.07,0,0,1,.308.1,1.457,1.457,0,0,0,.365.1h.327a8.5,8.5,0,0,0,1.538-.461,3.836,3.836,0,0,0,1.173-.75,3.006,3.006,0,0,0,.75-1.115,4.3,4.3,0,0,0,.269-1.576v-.807a2.272,2.272,0,0,1-.154-.423c-.077-.211-.154-.423-.25-.673-.1-.231-.173-.442-.25-.654a1.858,1.858,0,0,0-.211-.4,2.854,2.854,0,0,0-.6-.75,4.11,4.11,0,0,0-.75-.538c-.269-.154-.538-.288-.826-.423s-.557-.25-.826-.346a.289.289,0,0,1-.212-.077.311.311,0,0,1-.135-.077,2.389,2.389,0,0,0-.25-.192.768.768,0,0,0-.25-.135,2.16,2.16,0,0,1-.461-.077,1,1,0,0,1-.4-.115,3.4,3.4,0,0,0-.346-.154c-.154-.077-.327-.154-.5-.25s-.346-.173-.5-.25a2.273,2.273,0,0,1-.346-.211q-.173-.115-.461-.288c-.193-.135-.4-.25-.6-.384s-.365-.231-.519-.327a1.052,1.052,0,0,0-.25-.135,2.65,2.65,0,0,1-.731-.884,7.44,7.44,0,0,1-.48-.98c-.038-.115-.077-.231-.135-.384a4.07,4.07,0,0,1-.154-.442,2.322,2.322,0,0,0-.154-.365c-.039-.1-.077-.154-.077-.173v-3a.777.777,0,0,1,.077-.25,1.079,1.079,0,0,1,.115-.288,5.27,5.27,0,0,0,.288-.577c.115-.25.23-.5.365-.75s.231-.481.346-.673a1.616,1.616,0,0,1,.211-.346,1.965,1.965,0,0,1,.442-.519,3.18,3.18,0,0,1,.538-.346,5.157,5.157,0,0,0,.538-.346,1.614,1.614,0,0,0,.442-.442c.077-.019.192-.038.385-.077q.259-.058.577-.115c.192-.038.385-.077.557-.115a1.907,1.907,0,0,1,.365-.058,1.118,1.118,0,0,0,.25-.1,1.123,1.123,0,0,1,.25-.1h.865a.933.933,0,0,1,.135-.058l.115-.058a.244.244,0,0,1,.115-.019h.269a6.009,6.009,0,0,1,1.442.154,9.024,9.024,0,0,1,1.288.519c.038,0,.115.019.25.038a.441.441,0,0,1,.25.1,1.122,1.122,0,0,1,.288.211c.1.1.173.192.269.288a1.587,1.587,0,0,0,.269.25.485.485,0,0,0,.326.115.536.536,0,0,0,.346-.115,1.928,1.928,0,0,0,.308-.25,1.68,1.68,0,0,1,.288-.25.555.555,0,0,1,.366-.115.845.845,0,0,1,.865.673v1.865q-.057.894-.115,1.846a5.866,5.866,0,0,1-.4,1.826c-.039.135-.077.192-.135.211a.721.721,0,0,1-.212.019.985.985,0,0,1-.6-.384,7.145,7.145,0,0,1-.673-.923,11.5,11.5,0,0,1-.577-1.077,3.438,3.438,0,0,1-.288-.865v-.288a1.711,1.711,0,0,0-.327-.807,1.866,1.866,0,0,0-.577-.519,4.176,4.176,0,0,0-.711-.384c-.269-.115-.519-.231-.807-.346a1.339,1.339,0,0,1-.308-.154,1.34,1.34,0,0,0-.365-.192.575.575,0,0,1-.192.077l-.173.058a.477.477,0,0,1-.154.019c-.5.25-.98.481-1.4.673a3.871,3.871,0,0,0-1.115.731,3.372,3.372,0,0,0-.75,1.077,4.328,4.328,0,0,0-.269,1.634,2,2,0,0,0,.288,1.115,2.536,2.536,0,0,0,.75.75,7.173,7.173,0,0,0,1,.577q.548.26,1.038.519c.365.231.711.461,1.058.692a4.187,4.187,0,0,0,1.076.5c.192.058.423.115.673.192s.5.154.75.25.5.192.73.288a3.837,3.837,0,0,1,.577.327,7.442,7.442,0,0,1,2.269,2.576,6.976,6.976,0,0,1,.807,3.326,6.538,6.538,0,0,1-.346,2.076,12.444,12.444,0,0,1-.884,2,7.752,7.752,0,0,1-3.441,2.672,11.757,11.757,0,0,1-4.325.807h-.269a1.124,1.124,0,0,1-.25-.1,2.029,2.029,0,0,0-.231-.1c-.1-.019-.231-.058-.442-.115-.192-.058-.4-.115-.6-.154-.192-.058-.385-.1-.558-.154a3.13,3.13,0,0,0-.346-.077c-.423-.135-.827-.25-1.211-.365a2.977,2.977,0,0,1-1.115-.634,1.22,1.22,0,0,0-.212-.154,3.688,3.688,0,0,1-.327-.25,2.038,2.038,0,0,1-.289-.288.471.471,0,0,1-.154-.308,2.167,2.167,0,0,0-.019-.269q-.029-.231-.058-.577c-.019-.211-.039-.442-.058-.673s-.02-.4-.02-.557v-.039Z" transform="translate(-1556.865 -211.731)" fill="#729eb8" stroke="#3b3b3b" stroke-width="0.5"/>
  </g>
</svg>
